<svg xmlns="http://www.w3.org/2000/svg" width="733" height="558" viewBox="0 0 733 558" font-family="Helvetica, Arial, sans-serif">
<defs><marker id="arrow" viewBox="0 0 10 10" refX="9" refY="5" markerWidth="8" markerHeight="8" orient="auto-start-end"><path d="M0,0 L10,5 L0,10 z" fill="#555555" stroke="#555555"/></marker></defs>
<rect x="0" y="0" width="733" height="558" fill="#ffffff"/>
<line x1="144.0" y1="58.0" x2="238.0" y2="92.0" stroke="#555555" stroke-width="1.4" marker-end="url(#arrow)"/><line x1="238.0" y1="126.0" x2="144.0" y2="160.0" stroke="#555555" stroke-width="1.4" marker-end="url(#arrow)"/><line x1="144.0" y1="194.0" x2="144.0" y2="228.0" stroke="#555555" stroke-width="1.4" marker-end="url(#arrow)"/><line x1="144.0" y1="262.0" x2="158.5" y2="296.0" stroke="#555555" stroke-width="1.4" marker-end="url(#arrow)"/><rect x="140.7" y="270.0" width="21.2" height="16" fill="#ffffff" stroke="none"/><text x="151.2" y="279.0" font-family="Helvetica, Arial, sans-serif" font-size="11" fill="#333333" text-anchor="middle" dominant-baseline="middle">no</text><line x1="144.0" y1="262.0" x2="459.0" y2="296.0" stroke="#555555" stroke-width="1.4" marker-end="url(#arrow)"/><rect x="287.6" y="270.0" width="27.8" height="16" fill="#ffffff" stroke="none"/><text x="301.5" y="279.0" font-family="Helvetica, Arial, sans-serif" font-size="11" fill="#333333" text-anchor="middle" dominant-baseline="middle">yes</text><line x1="459.0" y1="330.0" x2="140.5" y2="364.0" stroke="#555555" stroke-width="1.4" marker-end="url(#arrow)"/><line x1="140.5" y1="398.0" x2="209.0" y2="432.0" stroke="#555555" stroke-width="1.4" marker-end="url(#arrow)"/><rect x="164.2" y="406.0" width="21.2" height="16" fill="#ffffff" stroke="none"/><text x="174.8" y="415.0" font-family="Helvetica, Arial, sans-serif" font-size="11" fill="#333333" text-anchor="middle" dominant-baseline="middle">no</text><line x1="140.5" y1="398.0" x2="581.5" y2="432.0" stroke="#555555" stroke-width="1.4" marker-end="url(#arrow)"/><rect x="347.1" y="406.0" width="27.8" height="16" fill="#ffffff" stroke="none"/><text x="361.0" y="415.0" font-family="Helvetica, Arial, sans-serif" font-size="11" fill="#333333" text-anchor="middle" dominant-baseline="middle">yes</text><line x1="581.5" y1="466.0" x2="194.5" y2="500.0" stroke="#555555" stroke-width="1.4" marker-end="url(#arrow)"/><rect x="377.4" y="474.0" width="21.2" height="16" fill="#ffffff" stroke="none"/><text x="388.0" y="483.0" font-family="Helvetica, Arial, sans-serif" font-size="11" fill="#333333" text-anchor="middle" dominant-baseline="middle">no</text><line x1="581.5" y1="466.0" x2="534.5" y2="500.0" stroke="#555555" stroke-width="1.4" marker-end="url(#arrow)"/><rect x="544.1" y="474.0" width="27.8" height="16" fill="#ffffff" stroke="none"/><text x="558.0" y="483.0" font-family="Helvetica, Arial, sans-serif" font-size="11" fill="#333333" text-anchor="middle" dominant-baseline="middle">yes</text><rect x="24.0" y="24.0" width="240.0" height="34.0" fill="#eef3fb" stroke="#3b5b92" stroke-width="1.5"/><text x="144.0" y="41.0" font-family="Helvetica, Arial, sans-serif" font-size="13" fill="#15233f" text-anchor="middle" dominant-baseline="middle" font-weight="normal"><tspan x="144.0" dy="0.0">Parse SBsql cluster statement</tspan></text><rect x="24.0" y="92.0" width="428.0" height="34.0" fill="#eef3fb" stroke="#3b5b92" stroke-width="1.5"/><text x="238.0" y="109.0" font-family="Helvetica, Arial, sans-serif" font-size="13" fill="#15233f" text-anchor="middle" dominant-baseline="middle" font-weight="normal"><tspan x="238.0" dy="0.0">Bind names, parameters, session, and result descriptors</tspan></text><rect x="24.0" y="160.0" width="240.0" height="34.0" fill="#eef3fb" stroke="#3b5b92" stroke-width="1.5"/><text x="144.0" y="177.0" font-family="Helvetica, Arial, sans-serif" font-size="13" fill="#15233f" text-anchor="middle" dominant-baseline="middle" font-weight="normal"><tspan x="144.0" dy="0.0">Classify as cluster operation</tspan></text><polygon points="144.0,228.0 264.0,245.0 144.0,262.0 24.0,245.0" fill="#eef3fb" stroke="#3b5b92" stroke-width="1.5"/><text x="144.0" y="245.0" font-family="Helvetica, Arial, sans-serif" font-size="13" fill="#15233f" text-anchor="middle" dominant-baseline="middle" font-weight="normal"><tspan x="144.0" dy="0.0">Build admits cluster routing?</tspan></text><rect x="24.0" y="296.0" width="269.0" height="34.0" fill="#eef3fb" stroke="#3b5b92" stroke-width="1.5"/><text x="158.5" y="313.0" font-family="Helvetica, Arial, sans-serif" font-size="13" fill="#15233f" text-anchor="middle" dominant-baseline="middle" font-weight="normal"><tspan x="158.5" dy="0.0">Return unsupported message vector</tspan></text><rect x="353.0" y="296.0" width="212.0" height="34.0" fill="#eef3fb" stroke="#3b5b92" stroke-width="1.5"/><text x="459.0" y="313.0" font-family="Helvetica, Arial, sans-serif" font-size="13" fill="#15233f" text-anchor="middle" dominant-baseline="middle" font-weight="normal"><tspan x="459.0" dy="0.0">Inspect provider boundary</tspan></text><polygon points="140.5,364.0 257.0,381.0 140.5,398.0 24.0,381.0" fill="#eef3fb" stroke="#3b5b92" stroke-width="1.5"/><text x="140.5" y="381.0" font-family="Helvetica, Arial, sans-serif" font-size="13" fill="#15233f" text-anchor="middle" dominant-baseline="middle" font-weight="normal"><tspan x="140.5" dy="0.0">Provider handshake accepted?</tspan></text><rect x="24.0" y="432.0" width="370.0" height="34.0" fill="#eef3fb" stroke="#3b5b92" stroke-width="1.5"/><text x="209.0" y="449.0" font-family="Helvetica, Arial, sans-serif" font-size="13" fill="#15233f" text-anchor="middle" dominant-baseline="middle" font-weight="normal"><tspan x="209.0" dy="0.0">Return unlicensed or fail-closed message vector</tspan></text><polygon points="581.5,432.0 709.0,449.0 581.5,466.0 454.0,449.0" fill="#eef3fb" stroke="#3b5b92" stroke-width="1.5"/><text x="581.5" y="449.0" font-family="Helvetica, Arial, sans-serif" font-size="13" fill="#15233f" text-anchor="middle" dominant-baseline="middle" font-weight="normal"><tspan x="581.5" dy="0.0">Operation admitted by provider?</tspan></text><rect x="24.0" y="500.0" width="341.0" height="34.0" fill="#eef3fb" stroke="#3b5b92" stroke-width="1.5"/><text x="194.5" y="517.0" font-family="Helvetica, Arial, sans-serif" font-size="13" fill="#15233f" text-anchor="middle" dominant-baseline="middle" font-weight="normal"><tspan x="194.5" dy="0.0">Return unsupported operation message vector</tspan></text><rect x="425.0" y="500.0" width="219.0" height="34.0" fill="#eef3fb" stroke="#3b5b92" stroke-width="1.5"/><text x="534.5" y="517.0" font-family="Helvetica, Arial, sans-serif" font-size="13" fill="#15233f" text-anchor="middle" dominant-baseline="middle" font-weight="normal"><tspan x="534.5" dy="0.0">Route to provider boundary</tspan></text></svg>
