<svg xmlns="http://www.w3.org/2000/svg" width="610" height="402" viewBox="0 0 610 402" font-family="Helvetica, Arial, sans-serif">
<defs><marker id="arrow" viewBox="0 0 10 10" refX="9" refY="5" markerWidth="8" markerHeight="8" orient="auto-start-end"><path d="M0,0 L10,5 L0,10 z" fill="#555555" stroke="#555555"/></marker></defs>
<rect x="0" y="0" width="610" height="402" fill="#ffffff"/>
<line x1="64.0" y1="58.0" x2="64.0" y2="378.0" stroke="#aaaaaa" stroke-width="1" stroke-dasharray="4,4"/><line x1="184.0" y1="58.0" x2="184.0" y2="378.0" stroke="#aaaaaa" stroke-width="1" stroke-dasharray="4,4"/><line x1="304.0" y1="58.0" x2="304.0" y2="378.0" stroke="#aaaaaa" stroke-width="1" stroke-dasharray="4,4"/><line x1="424.0" y1="58.0" x2="424.0" y2="378.0" stroke="#aaaaaa" stroke-width="1" stroke-dasharray="4,4"/><line x1="545.2" y1="58.0" x2="545.2" y2="378.0" stroke="#aaaaaa" stroke-width="1" stroke-dasharray="4,4"/><rect x="24.0" y="24.0" width="80.0" height="34" rx="6" fill="#eef3fb" stroke="#3b5b92" stroke-width="1.5"/><text x="64.0" y="41.0" font-family="Helvetica, Arial, sans-serif" font-size="13" fill="#15233f" text-anchor="middle" dominant-baseline="middle" font-weight="normal"><tspan x="64.0" dy="0.0">User</tspan></text><rect x="144.0" y="24.0" width="80.0" height="34" rx="6" fill="#eef3fb" stroke="#3b5b92" stroke-width="1.5"/><text x="184.0" y="41.0" font-family="Helvetica, Arial, sans-serif" font-size="13" fill="#15233f" text-anchor="middle" dominant-baseline="middle" font-weight="normal"><tspan x="184.0" dy="0.0">SBsql</tspan></text><rect x="264.0" y="24.0" width="80.0" height="34" rx="6" fill="#eef3fb" stroke="#3b5b92" stroke-width="1.5"/><text x="304.0" y="41.0" font-family="Helvetica, Arial, sans-serif" font-size="13" fill="#15233f" text-anchor="middle" dominant-baseline="middle" font-weight="normal"><tspan x="304.0" dy="0.0">Parser</tspan></text><rect x="384.0" y="24.0" width="80.0" height="34" rx="6" fill="#eef3fb" stroke="#3b5b92" stroke-width="1.5"/><text x="424.0" y="41.0" font-family="Helvetica, Arial, sans-serif" font-size="13" fill="#15233f" text-anchor="middle" dominant-baseline="middle" font-weight="normal"><tspan x="424.0" dy="0.0">Engine</tspan></text><rect x="504.0" y="24.0" width="82.4" height="34" rx="6" fill="#eef3fb" stroke="#3b5b92" stroke-width="1.5"/><text x="545.2" y="41.0" font-family="Helvetica, Arial, sans-serif" font-size="13" fill="#15233f" text-anchor="middle" dominant-baseline="middle" font-weight="normal"><tspan x="545.2" dy="0.0">Storage</tspan></text><line x1="64.0" y1="88.0" x2="184.0" y2="88.0" stroke="#555555" stroke-width="1.3" marker-end="url(#arrow)"/><text x="124.0" y="82.0" font-family="Helvetica, Arial, sans-serif" font-size="11" fill="#333333" text-anchor="middle">Start client session</text><line x1="184.0" y1="126.0" x2="304.0" y2="126.0" stroke="#555555" stroke-width="1.3" marker-end="url(#arrow)"/><text x="244.0" y="120.0" font-family="Helvetica, Arial, sans-serif" font-size="11" fill="#333333" text-anchor="middle">Send native SBsql text</text><line x1="304.0" y1="164.0" x2="424.0" y2="164.0" stroke="#555555" stroke-width="1.3" marker-end="url(#arrow)"/><text x="364.0" y="158.0" font-family="Helvetica, Arial, sans-serif" font-size="11" fill="#333333" text-anchor="middle">Submit bound request</text><line x1="424.0" y1="202.0" x2="545.2" y2="202.0" stroke="#555555" stroke-width="1.3" marker-end="url(#arrow)"/><text x="484.6" y="196.0" font-family="Helvetica, Arial, sans-serif" font-size="11" fill="#333333" text-anchor="middle">Read or write admitted data</text><line x1="545.2" y1="240.0" x2="424.0" y2="240.0" stroke="#555555" stroke-width="1.3" stroke-dasharray="5,4" marker-end="url(#arrow)"/><text x="484.6" y="234.0" font-family="Helvetica, Arial, sans-serif" font-size="11" fill="#333333" text-anchor="middle">Data and metadata</text><line x1="424.0" y1="278.0" x2="304.0" y2="278.0" stroke="#555555" stroke-width="1.3" stroke-dasharray="5,4" marker-end="url(#arrow)"/><text x="364.0" y="272.0" font-family="Helvetica, Arial, sans-serif" font-size="11" fill="#333333" text-anchor="middle">Result or message vector</text><line x1="304.0" y1="316.0" x2="184.0" y2="316.0" stroke="#555555" stroke-width="1.3" stroke-dasharray="5,4" marker-end="url(#arrow)"/><text x="244.0" y="310.0" font-family="Helvetica, Arial, sans-serif" font-size="11" fill="#333333" text-anchor="middle">Render response</text><line x1="184.0" y1="354.0" x2="64.0" y2="354.0" stroke="#555555" stroke-width="1.3" stroke-dasharray="5,4" marker-end="url(#arrow)"/><text x="124.0" y="348.0" font-family="Helvetica, Arial, sans-serif" font-size="11" fill="#333333" text-anchor="middle">Rows, status, or diagnostic</text></svg>
