<svg xmlns="http://www.w3.org/2000/svg" width="4252" height="286" viewBox="0 0 4252 286" font-family="Helvetica, Arial, sans-serif">
<defs><marker id="arrow" viewBox="0 0 10 10" refX="9" refY="5" markerWidth="8" markerHeight="8" orient="auto-start-end"><path d="M0,0 L10,5 L0,10 z" fill="#555555" stroke="#555555"/></marker></defs>
<rect x="0" y="0" width="4252" height="286" fill="#ffffff"/>
<line x1="4228.0" y1="41.0" x2="3716.0" y2="41.0" stroke="#555555" stroke-width="1.4" marker-end="url(#arrow)"/><line x1="3956.0" y1="41.0" x2="3024.0" y2="41.0" stroke="#555555" stroke-width="1.4" marker-end="url(#arrow)"/><line x1="3185.0" y1="41.0" x2="3245.0" y2="41.0" stroke="#555555" stroke-width="1.4" marker-end="url(#arrow)"/><line x1="3320.0" y1="41.0" x2="3434.0" y2="41.0" stroke="#555555" stroke-width="1.4" marker-end="url(#arrow)"/><line x1="3320.0" y1="41.0" x2="3412.0" y2="109.0" stroke="#555555" stroke-width="1.4" marker-end="url(#arrow)"/><line x1="3320.0" y1="41.0" x2="3434.0" y2="177.0" stroke="#555555" stroke-width="1.4" marker-end="url(#arrow)"/><line x1="3320.0" y1="41.0" x2="3380.0" y2="245.0" stroke="#555555" stroke-width="1.4" marker-end="url(#arrow)"/><line x1="3656.0" y1="245.0" x2="3716.0" y2="41.0" stroke="#555555" stroke-width="1.4" marker-end="url(#arrow)"/><line x1="3956.0" y1="41.0" x2="4016.0" y2="41.0" stroke="#555555" stroke-width="1.4" marker-end="url(#arrow)"/><rect x="4016.0" y="24.0" width="212.0" height="34.0" fill="#eef3fb" stroke="#3b5b92" stroke-width="1.5"/><text x="4122.0" y="41.0" font-family="Helvetica, Arial, sans-serif" font-size="13" fill="#15233f" text-anchor="middle" dominant-baseline="middle" font-weight="normal"><tspan x="4122.0" dy="0.0">Compatible client or tool</tspan></text><rect x="3716.0" y="24.0" width="240.0" height="34.0" fill="#eef3fb" stroke="#3b5b92" stroke-width="1.5"/><text x="3836.0" y="41.0" font-family="Helvetica, Arial, sans-serif" font-size="13" fill="#15233f" text-anchor="middle" dominant-baseline="middle" font-weight="normal"><tspan x="3836.0" dy="0.0">Matching compatibility parser</tspan></text><rect x="3024.0" y="24.0" width="161.0" height="34.0" fill="#eef3fb" stroke="#3b5b92" stroke-width="1.5"/><text x="3104.5" y="41.0" font-family="Helvetica, Arial, sans-serif" font-size="13" fill="#15233f" text-anchor="middle" dominant-baseline="middle" font-weight="normal"><tspan x="3104.5" dy="0.0">Bound SBLR request</tspan></text><rect x="3245.0" y="24.0" width="75.0" height="34.0" fill="#eef3fb" stroke="#3b5b92" stroke-width="1.5"/><text x="3282.5" y="41.0" font-family="Helvetica, Arial, sans-serif" font-size="13" fill="#15233f" text-anchor="middle" dominant-baseline="middle" font-weight="normal"><tspan x="3282.5" dy="0.0">SBcore</tspan></text><rect x="3434.0" y="24.0" width="168.0" height="34.0" fill="#eef3fb" stroke="#3b5b92" stroke-width="1.5"/><text x="3518.0" y="41.0" font-family="Helvetica, Arial, sans-serif" font-size="13" fill="#15233f" text-anchor="middle" dominant-baseline="middle" font-weight="normal"><tspan x="3518.0" dy="0.0">ScratchBird catalog</tspan></text><rect x="3412.0" y="92.0" width="212.0" height="34.0" fill="#eef3fb" stroke="#3b5b92" stroke-width="1.5"/><text x="3518.0" y="109.0" font-family="Helvetica, Arial, sans-serif" font-size="13" fill="#15233f" text-anchor="middle" dominant-baseline="middle" font-weight="normal"><tspan x="3518.0" dy="0.0">MGA transaction authority</tspan></text><rect x="3434.0" y="160.0" width="168.0" height="34.0" fill="#eef3fb" stroke="#3b5b92" stroke-width="1.5"/><text x="3518.0" y="177.0" font-family="Helvetica, Arial, sans-serif" font-size="13" fill="#15233f" text-anchor="middle" dominant-baseline="middle" font-weight="normal"><tspan x="3518.0" dy="0.0">ScratchBird storage</tspan></text><rect x="3380.0" y="228.0" width="276.0" height="34.0" fill="#eef3fb" stroke="#3b5b92" stroke-width="1.5"/><text x="3518.0" y="245.0" font-family="Helvetica, Arial, sans-serif" font-size="13" fill="#15233f" text-anchor="middle" dominant-baseline="middle" font-weight="normal"><tspan x="3518.0" dy="0.0">Client-shaped result or diagnostic</tspan></text></svg>
