<svg xmlns="http://www.w3.org/2000/svg" width="1146" height="82" viewBox="0 0 1146 82" font-family="Helvetica, Arial, sans-serif">
<defs><marker id="arrow" viewBox="0 0 10 10" refX="9" refY="5" markerWidth="8" markerHeight="8" orient="auto-start-end"><path d="M0,0 L10,5 L0,10 z" fill="#555555" stroke="#555555"/></marker></defs>
<rect x="0" y="0" width="1146" height="82" fill="#ffffff"/>
<line x1="99.0" y1="41.0" x2="159.0" y2="41.0" stroke="#555555" stroke-width="1.4" marker-end="url(#arrow)"/><line x1="229.0" y1="41.0" x2="289.0" y2="41.0" stroke="#555555" stroke-width="1.4" marker-end="url(#arrow)"/><line x1="364.0" y1="41.0" x2="424.0" y2="41.0" stroke="#555555" stroke-width="1.4" marker-end="url(#arrow)"/><line x1="506.0" y1="41.0" x2="566.0" y2="41.0" stroke="#555555" stroke-width="1.4" marker-end="url(#arrow)"/><line x1="713.0" y1="41.0" x2="773.0" y2="41.0" stroke="#555555" stroke-width="1.4" marker-end="url(#arrow)"/><line x1="992.0" y1="41.0" x2="1052.0" y2="41.0" stroke="#555555" stroke-width="1.4" marker-end="url(#arrow)"/><rect x="24.0" y="24.0" width="75.0" height="34.0" fill="#eef3fb" stroke="#3b5b92" stroke-width="1.5"/><text x="61.5" y="41.0" font-family="Helvetica, Arial, sans-serif" font-size="13" fill="#15233f" text-anchor="middle" dominant-baseline="middle" font-weight="normal"><tspan x="61.5" dy="0.0">Create</tspan></text><rect x="159.0" y="24.0" width="70.0" height="34.0" fill="#eef3fb" stroke="#3b5b92" stroke-width="1.5"/><text x="194.0" y="41.0" font-family="Helvetica, Arial, sans-serif" font-size="13" fill="#15233f" text-anchor="middle" dominant-baseline="middle" font-weight="normal"><tspan x="194.0" dy="0.0">Alter</tspan></text><rect x="289.0" y="24.0" width="75.0" height="34.0" fill="#eef3fb" stroke="#3b5b92" stroke-width="1.5"/><text x="326.5" y="41.0" font-family="Helvetica, Arial, sans-serif" font-size="13" fill="#15233f" text-anchor="middle" dominant-baseline="middle" font-weight="normal"><tspan x="326.5" dy="0.0">Rename</tspan></text><rect x="424.0" y="24.0" width="82.0" height="34.0" fill="#eef3fb" stroke="#3b5b92" stroke-width="1.5"/><text x="465.0" y="41.0" font-family="Helvetica, Arial, sans-serif" font-size="13" fill="#15233f" text-anchor="middle" dominant-baseline="middle" font-weight="normal"><tspan x="465.0" dy="0.0">Comment</tspan></text><rect x="566.0" y="24.0" width="147.0" height="34.0" fill="#eef3fb" stroke="#3b5b92" stroke-width="1.5"/><text x="639.5" y="41.0" font-family="Helvetica, Arial, sans-serif" font-size="13" fill="#15233f" text-anchor="middle" dominant-baseline="middle" font-weight="normal"><tspan x="639.5" dy="0.0">Show or describe</tspan></text><rect x="773.0" y="24.0" width="219.0" height="34.0" fill="#eef3fb" stroke="#3b5b92" stroke-width="1.5"/><text x="882.5" y="41.0" font-family="Helvetica, Arial, sans-serif" font-size="13" fill="#15233f" text-anchor="middle" dominant-baseline="middle" font-weight="normal"><tspan x="882.5" dy="0.0">Use in queries or routines</tspan></text><rect x="1052.0" y="24.0" width="70.0" height="34.0" fill="#eef3fb" stroke="#3b5b92" stroke-width="1.5"/><text x="1087.0" y="41.0" font-family="Helvetica, Arial, sans-serif" font-size="13" fill="#15233f" text-anchor="middle" dominant-baseline="middle" font-weight="normal"><tspan x="1087.0" dy="0.0">Drop</tspan></text></svg>
