<svg xmlns="http://www.w3.org/2000/svg" width="604" height="286" viewBox="0 0 604 286" font-family="Helvetica, Arial, sans-serif">
<defs><marker id="arrow" viewBox="0 0 10 10" refX="9" refY="5" markerWidth="8" markerHeight="8" orient="auto-start-end"><path d="M0,0 L10,5 L0,10 z" fill="#555555" stroke="#555555"/></marker></defs>
<rect x="0" y="0" width="604" height="286" fill="#ffffff"/>
<line x1="94.0" y1="58.0" x2="112.0" y2="92.0" stroke="#555555" stroke-width="1.4" marker-end="url(#arrow)"/><line x1="94.0" y1="58.0" x2="355.0" y2="92.0" stroke="#555555" stroke-width="1.4" marker-end="url(#arrow)"/><line x1="94.0" y1="58.0" x2="545.0" y2="92.0" stroke="#555555" stroke-width="1.4" marker-end="url(#arrow)"/><line x1="545.0" y1="126.0" x2="331.0" y2="160.0" stroke="#555555" stroke-width="1.4" marker-end="url(#arrow)"/><line x1="545.0" y1="126.0" x2="59.0" y2="160.0" stroke="#555555" stroke-width="1.4" marker-end="url(#arrow)"/><line x1="59.0" y1="194.0" x2="83.0" y2="228.0" stroke="#555555" stroke-width="1.4" marker-end="url(#arrow)"/><line x1="545.0" y1="126.0" x2="195.0" y2="160.0" stroke="#555555" stroke-width="1.4" marker-end="url(#arrow)"/><rect x="24.0" y="24.0" width="140.0" height="34.0" fill="#eef3fb" stroke="#3b5b92" stroke-width="1.5"/><text x="94.0" y="41.0" font-family="Helvetica, Arial, sans-serif" font-size="13" fill="#15233f" text-anchor="middle" dominant-baseline="middle" font-weight="normal"><tspan x="94.0" dy="0.0">/Database root/</tspan></text><rect x="24.0" y="92.0" width="176.0" height="34.0" fill="#eef3fb" stroke="#3b5b92" stroke-width="1.5"/><text x="112.0" y="109.0" font-family="Helvetica, Arial, sans-serif" font-size="13" fill="#15233f" text-anchor="middle" dominant-baseline="middle" font-weight="normal"><tspan x="112.0" dy="0.0">System schema branch</tspan></text><rect x="260.0" y="92.0" width="190.0" height="34.0" fill="#eef3fb" stroke="#3b5b92" stroke-width="1.5"/><text x="355.0" y="109.0" font-family="Helvetica, Arial, sans-serif" font-size="13" fill="#15233f" text-anchor="middle" dominant-baseline="middle" font-weight="normal"><tspan x="355.0" dy="0.0">Security schema branch</tspan></text><rect x="510.0" y="92.0" width="70.0" height="34.0" fill="#eef3fb" stroke="#3b5b92" stroke-width="1.5"/><text x="545.0" y="109.0" font-family="Helvetica, Arial, sans-serif" font-size="13" fill="#15233f" text-anchor="middle" dominant-baseline="middle" font-weight="normal"><tspan x="545.0" dy="0.0">app</tspan></text><rect x="24.0" y="160.0" width="70.0" height="34.0" fill="#eef3fb" stroke="#3b5b92" stroke-width="1.5"/><text x="59.0" y="177.0" font-family="Helvetica, Arial, sans-serif" font-size="13" fill="#15233f" text-anchor="middle" dominant-baseline="middle" font-weight="normal"><tspan x="59.0" dy="0.0">sales</tspan></text><rect x="154.0" y="160.0" width="82.0" height="34.0" fill="#eef3fb" stroke="#3b5b92" stroke-width="1.5"/><text x="195.0" y="177.0" font-family="Helvetica, Arial, sans-serif" font-size="13" fill="#15233f" text-anchor="middle" dominant-baseline="middle" font-weight="normal"><tspan x="195.0" dy="0.0">archive</tspan></text><rect x="24.0" y="228.0" width="118.0" height="34.0" fill="#eef3fb" stroke="#3b5b92" stroke-width="1.5"/><text x="83.0" y="245.0" font-family="Helvetica, Arial, sans-serif" font-size="13" fill="#15233f" text-anchor="middle" dominant-baseline="middle" font-weight="normal"><tspan x="83.0" dy="0.0">orders table</tspan></text><rect x="296.0" y="160.0" width="70.0" height="34.0" fill="#eef3fb" stroke="#3b5b92" stroke-width="1.5"/><text x="331.0" y="177.0" font-family="Helvetica, Arial, sans-serif" font-size="13" fill="#15233f" text-anchor="middle" dominant-baseline="middle" font-weight="normal"><tspan x="331.0" dy="0.0">Notes</tspan></text></svg>
