<svg xmlns="http://www.w3.org/2000/svg" width="209" height="4418" viewBox="0 0 209 4418" font-family="Helvetica, Arial, sans-serif">
<defs><marker id="arrow" viewBox="0 0 10 10" refX="9" refY="5" markerWidth="8" markerHeight="8" orient="auto-start-end"><path d="M0,0 L10,5 L0,10 z" fill="#555555" stroke="#555555"/></marker></defs>
<rect x="0" y="0" width="209" height="4418" fill="#ffffff"/>
<line x1="33.0" y1="4394.0" x2="76.0" y2="3730.0" stroke="#555555" stroke-width="1.4" marker-end="url(#arrow)"/><line x1="76.0" y1="3764.0" x2="76.0" y2="3798.0" stroke="#555555" stroke-width="1.4" marker-end="url(#arrow)"/><line x1="76.0" y1="3832.0" x2="68.5" y2="4240.0" stroke="#555555" stroke-width="1.4" marker-end="url(#arrow)"/><line x1="68.5" y1="4274.0" x2="86.5" y2="3900.0" stroke="#555555" stroke-width="1.4" marker-end="url(#arrow)"/><line x1="86.5" y1="3934.0" x2="83.0" y2="4104.0" stroke="#555555" stroke-width="1.4" marker-end="url(#arrow)"/><line x1="83.0" y1="4138.0" x2="104.5" y2="4036.0" stroke="#555555" stroke-width="1.4" marker-end="url(#arrow)"/><line x1="104.5" y1="4070.0" x2="104.5" y2="4036.0" stroke="#555555" stroke-width="1.4" marker-end="url(#arrow)"/><line x1="104.5" y1="4070.0" x2="83.0" y2="4104.0" stroke="#555555" stroke-width="1.4" marker-end="url(#arrow)"/><line x1="83.0" y1="4138.0" x2="68.5" y2="4172.0" stroke="#555555" stroke-width="1.4" marker-end="url(#arrow)"/><line x1="68.5" y1="4206.0" x2="68.5" y2="4240.0" stroke="#555555" stroke-width="1.4" marker-end="url(#arrow)"/><line x1="68.5" y1="4274.0" x2="68.5" y2="4308.0" stroke="#555555" stroke-width="1.4" marker-end="url(#arrow)"/><line x1="68.5" y1="4342.0" x2="33.0" y2="4376.0" stroke="#555555" stroke-width="1.4" marker-end="url(#arrow)"/><circle cx="33.0" cy="4385.0" r="8" fill="#333333" stroke="#333333"/><rect x="24.0" y="3730.0" width="104.0" height="34.0" rx="8.0" ry="8.0" fill="#eef3fb" stroke="#3b5b92" stroke-width="1.5"/><text x="76.0" y="3747.0" font-family="Helvetica, Arial, sans-serif" font-size="13" fill="#15233f" text-anchor="middle" dominant-baseline="middle" font-weight="normal"><tspan x="76.0" dy="0.0">registered</tspan></text><rect x="24.0" y="3798.0" width="104.0" height="34.0" rx="8.0" ry="8.0" fill="#eef3fb" stroke="#3b5b92" stroke-width="1.5"/><text x="76.0" y="3815.0" font-family="Helvetica, Arial, sans-serif" font-size="13" fill="#15233f" text-anchor="middle" dominant-baseline="middle" font-weight="normal"><tspan x="76.0" dy="0.0">configured</tspan></text><rect x="24.0" y="4240.0" width="89.0" height="34.0" rx="8.0" ry="8.0" fill="#eef3fb" stroke="#3b5b92" stroke-width="1.5"/><text x="68.5" y="4257.0" font-family="Helvetica, Arial, sans-serif" font-size="13" fill="#15233f" text-anchor="middle" dominant-baseline="middle" font-weight="normal"><tspan x="68.5" dy="0.0">attached</tspan></text><rect x="24.0" y="3900.0" width="125.0" height="34.0" rx="8.0" ry="8.0" fill="#eef3fb" stroke="#3b5b92" stroke-width="1.5"/><text x="86.5" y="3917.0" font-family="Helvetica, Arial, sans-serif" font-size="13" fill="#15233f" text-anchor="middle" dominant-baseline="middle" font-weight="normal"><tspan x="86.5" dy="0.0">authenticated</tspan></text><rect x="24.0" y="4104.0" width="118.0" height="34.0" rx="8.0" ry="8.0" fill="#eef3fb" stroke="#3b5b92" stroke-width="1.5"/><text x="83.0" y="4121.0" font-family="Helvetica, Arial, sans-serif" font-size="13" fill="#15233f" text-anchor="middle" dominant-baseline="middle" font-weight="normal"><tspan x="83.0" dy="0.0">session_open</tspan></text><rect x="24.0" y="4036.0" width="161.0" height="34.0" rx="8.0" ry="8.0" fill="#eef3fb" stroke="#3b5b92" stroke-width="1.5"/><text x="104.5" y="4053.0" font-family="Helvetica, Arial, sans-serif" font-size="13" fill="#15233f" text-anchor="middle" dominant-baseline="middle" font-weight="normal"><tspan x="104.5" dy="0.0">transaction_active</tspan></text><rect x="24.0" y="4172.0" width="89.0" height="34.0" rx="8.0" ry="8.0" fill="#eef3fb" stroke="#3b5b92" stroke-width="1.5"/><text x="68.5" y="4189.0" font-family="Helvetica, Arial, sans-serif" font-size="13" fill="#15233f" text-anchor="middle" dominant-baseline="middle" font-weight="normal"><tspan x="68.5" dy="0.0">draining</tspan></text><rect x="24.0" y="4308.0" width="89.0" height="34.0" rx="8.0" ry="8.0" fill="#eef3fb" stroke="#3b5b92" stroke-width="1.5"/><text x="68.5" y="4325.0" font-family="Helvetica, Arial, sans-serif" font-size="13" fill="#15233f" text-anchor="middle" dominant-baseline="middle" font-weight="normal"><tspan x="68.5" dy="0.0">detached</tspan></text></svg>
