<svg xmlns="http://www.w3.org/2000/svg" width="661" height="490" viewBox="0 0 661 490" font-family="Helvetica, Arial, sans-serif">
<defs><marker id="arrow" viewBox="0 0 10 10" refX="9" refY="5" markerWidth="8" markerHeight="8" orient="auto-start-end"><path d="M0,0 L10,5 L0,10 z" fill="#555555" stroke="#555555"/></marker></defs>
<rect x="0" y="0" width="661" height="490" fill="#ffffff"/>
<line x1="148.0" y1="58.0" x2="198.0" y2="92.0" stroke="#555555" stroke-width="1.4" marker-end="url(#arrow)"/><line x1="198.0" y1="126.0" x2="133.5" y2="160.0" stroke="#555555" stroke-width="1.4" marker-end="url(#arrow)"/><line x1="133.5" y1="194.0" x2="144.0" y2="228.0" stroke="#555555" stroke-width="1.4" marker-end="url(#arrow)"/><line x1="144.0" y1="262.0" x2="133.5" y2="296.0" stroke="#555555" stroke-width="1.4" marker-end="url(#arrow)"/><rect x="128.2" y="270.0" width="21.2" height="16" fill="#ffffff" stroke="none"/><text x="138.8" y="279.0" font-family="Helvetica, Arial, sans-serif" font-size="11" fill="#333333" text-anchor="middle" dominant-baseline="middle">no</text><line x1="144.0" y1="262.0" x2="427.0" y2="296.0" stroke="#555555" stroke-width="1.4" marker-end="url(#arrow)"/><rect x="271.6" y="270.0" width="27.8" height="16" fill="#ffffff" stroke="none"/><text x="285.5" y="279.0" font-family="Helvetica, Arial, sans-serif" font-size="11" fill="#333333" text-anchor="middle" dominant-baseline="middle">yes</text><line x1="427.0" y1="330.0" x2="176.5" y2="364.0" stroke="#555555" stroke-width="1.4" marker-end="url(#arrow)"/><line x1="176.5" y1="398.0" x2="184.0" y2="432.0" stroke="#555555" stroke-width="1.4" marker-end="url(#arrow)"/><rect x="169.7" y="406.0" width="21.2" height="16" fill="#ffffff" stroke="none"/><text x="180.2" y="415.0" font-family="Helvetica, Arial, sans-serif" font-size="11" fill="#333333" text-anchor="middle" dominant-baseline="middle">no</text><line x1="176.5" y1="398.0" x2="520.5" y2="432.0" stroke="#555555" stroke-width="1.4" marker-end="url(#arrow)"/><rect x="334.6" y="406.0" width="27.8" height="16" fill="#ffffff" stroke="none"/><text x="348.5" y="415.0" font-family="Helvetica, Arial, sans-serif" font-size="11" fill="#333333" text-anchor="middle" dominant-baseline="middle">yes</text><rect x="24.0" y="24.0" width="248.0" height="34.0" fill="#eef3fb" stroke="#3b5b92" stroke-width="1.5"/><text x="148.0" y="41.0" font-family="Helvetica, Arial, sans-serif" font-size="13" fill="#15233f" text-anchor="middle" dominant-baseline="middle" font-weight="normal"><tspan x="148.0" dy="0.0">Parse cluster-classified SBsql</tspan></text><rect x="24.0" y="92.0" width="348.0" height="34.0" fill="#eef3fb" stroke="#3b5b92" stroke-width="1.5"/><text x="198.0" y="109.0" font-family="Helvetica, Arial, sans-serif" font-size="13" fill="#15233f" text-anchor="middle" dominant-baseline="middle" font-weight="normal"><tspan x="198.0" dy="0.0">Bind names, descriptors, and session context</tspan></text><rect x="24.0" y="160.0" width="219.0" height="34.0" fill="#eef3fb" stroke="#3b5b92" stroke-width="1.5"/><text x="133.5" y="177.0" font-family="Helvetica, Arial, sans-serif" font-size="13" fill="#15233f" text-anchor="middle" dominant-baseline="middle" font-weight="normal"><tspan x="133.5" dy="0.0">Classify cluster operation</tspan></text><polygon points="144.0,228.0 264.0,245.0 144.0,262.0 24.0,245.0" fill="#eef3fb" stroke="#3b5b92" stroke-width="1.5"/><text x="144.0" y="245.0" font-family="Helvetica, Arial, sans-serif" font-size="13" fill="#15233f" text-anchor="middle" dominant-baseline="middle" font-weight="normal"><tspan x="144.0" dy="0.0">Build admits cluster routing?</tspan></text><rect x="24.0" y="296.0" width="219.0" height="34.0" fill="#eef3fb" stroke="#3b5b92" stroke-width="1.5"/><text x="133.5" y="313.0" font-family="Helvetica, Arial, sans-serif" font-size="13" fill="#15233f" text-anchor="middle" dominant-baseline="middle" font-weight="normal"><tspan x="133.5" dy="0.0">unsupported message vector</tspan></text><rect x="303.0" y="296.0" width="248.0" height="34.0" fill="#eef3fb" stroke="#3b5b92" stroke-width="1.5"/><text x="427.0" y="313.0" font-family="Helvetica, Arial, sans-serif" font-size="13" fill="#15233f" text-anchor="middle" dominant-baseline="middle" font-weight="normal"><tspan x="427.0" dy="0.0">Call cluster provider boundary</tspan></text><polygon points="176.5,364.0 329.0,381.0 176.5,398.0 24.0,381.0" fill="#eef3fb" stroke="#3b5b92" stroke-width="1.5"/><text x="176.5" y="381.0" font-family="Helvetica, Arial, sans-serif" font-size="13" fill="#15233f" text-anchor="middle" dominant-baseline="middle" font-weight="normal"><tspan x="176.5" dy="0.0">Provider executes production behavior?</tspan></text><rect x="24.0" y="432.0" width="320.0" height="34.0" fill="#eef3fb" stroke="#3b5b92" stroke-width="1.5"/><text x="184.0" y="449.0" font-family="Helvetica, Arial, sans-serif" font-size="13" fill="#15233f" text-anchor="middle" dominant-baseline="middle" font-weight="normal"><tspan x="184.0" dy="0.0">unlicensed or fail-closed message vector</tspan></text><rect x="404.0" y="432.0" width="233.0" height="34.0" fill="#eef3fb" stroke="#3b5b92" stroke-width="1.5"/><text x="520.5" y="449.0" font-family="Helvetica, Arial, sans-serif" font-size="13" fill="#15233f" text-anchor="middle" dominant-baseline="middle" font-weight="normal"><tspan x="520.5" dy="0.0">provider-owned cluster route</tspan></text></svg>
