<svg xmlns="http://www.w3.org/2000/svg" width="624" height="524" viewBox="0 0 624 524" font-family="Helvetica, Arial, sans-serif">
<defs><marker id="arrow" viewBox="0 0 10 10" refX="9" refY="5" markerWidth="8" markerHeight="8" orient="auto-start-end"><path d="M0,0 L10,5 L0,10 z" fill="#555555" stroke="#555555"/></marker></defs>
<rect x="0" y="0" width="624" height="524" fill="#ffffff"/>
<line x1="86.8" y1="58.0" x2="86.8" y2="500.0" stroke="#aaaaaa" stroke-width="1" stroke-dasharray="4,4"/><line x1="252.4" y1="58.0" x2="252.4" y2="500.0" stroke="#aaaaaa" stroke-width="1" stroke-dasharray="4,4"/><line x1="395.2" y1="58.0" x2="395.2" y2="500.0" stroke="#aaaaaa" stroke-width="1" stroke-dasharray="4,4"/><line x1="538.0" y1="58.0" x2="538.0" y2="500.0" stroke="#aaaaaa" stroke-width="1" stroke-dasharray="4,4"/><rect x="24.0" y="24.0" width="125.6" height="34" rx="6" fill="#eef3fb" stroke="#3b5b92" stroke-width="1.5"/><text x="86.8" y="41.0" font-family="Helvetica, Arial, sans-serif" font-size="13" fill="#15233f" text-anchor="middle" dominant-baseline="middle" font-weight="normal"><tspan x="86.8" dy="0.0">Transaction A</tspan></text><rect x="189.6" y="24.0" width="125.6" height="34" rx="6" fill="#eef3fb" stroke="#3b5b92" stroke-width="1.5"/><text x="252.4" y="41.0" font-family="Helvetica, Arial, sans-serif" font-size="13" fill="#15233f" text-anchor="middle" dominant-baseline="middle" font-weight="normal"><tspan x="252.4" dy="0.0">Transaction B</tspan></text><rect x="355.2" y="24.0" width="80.0" height="34" rx="6" fill="#eef3fb" stroke="#3b5b92" stroke-width="1.5"/><text x="395.2" y="41.0" font-family="Helvetica, Arial, sans-serif" font-size="13" fill="#15233f" text-anchor="middle" dominant-baseline="middle" font-weight="normal"><tspan x="395.2" dy="0.0">Engine</tspan></text><rect x="475.2" y="24.0" width="125.6" height="34" rx="6" fill="#eef3fb" stroke="#3b5b92" stroke-width="1.5"/><text x="538.0" y="41.0" font-family="Helvetica, Arial, sans-serif" font-size="13" fill="#15233f" text-anchor="middle" dominant-baseline="middle" font-weight="normal"><tspan x="538.0" dy="0.0">MGA Inventory</tspan></text><line x1="86.8" y1="88.0" x2="395.2" y2="88.0" stroke="#555555" stroke-width="1.3" marker-end="url(#arrow)"/><text x="241.0" y="82.0" font-family="Helvetica, Arial, sans-serif" font-size="11" fill="#333333" text-anchor="middle">begin snapshot</text><line x1="395.2" y1="126.0" x2="538.0" y2="126.0" stroke="#555555" stroke-width="1.3" marker-end="url(#arrow)"/><text x="466.6" y="120.0" font-family="Helvetica, Arial, sans-serif" font-size="11" fill="#333333" text-anchor="middle">allocate transaction identity</text><line x1="252.4" y1="164.0" x2="395.2" y2="164.0" stroke="#555555" stroke-width="1.3" marker-end="url(#arrow)"/><text x="323.8" y="158.0" font-family="Helvetica, Arial, sans-serif" font-size="11" fill="#333333" text-anchor="middle">begin snapshot</text><line x1="395.2" y1="202.0" x2="538.0" y2="202.0" stroke="#555555" stroke-width="1.3" marker-end="url(#arrow)"/><text x="466.6" y="196.0" font-family="Helvetica, Arial, sans-serif" font-size="11" fill="#333333" text-anchor="middle">allocate transaction identity</text><line x1="86.8" y1="240.0" x2="395.2" y2="240.0" stroke="#555555" stroke-width="1.3" marker-end="url(#arrow)"/><text x="241.0" y="234.0" font-family="Helvetica, Arial, sans-serif" font-size="11" fill="#333333" text-anchor="middle">update row</text><path d="M395.2,278.0 h40 v18 h-40" fill="none" stroke="#555555" stroke-width="1.3" marker-end="url(#arrow)"/><text x="441.2" y="274.0" font-family="Helvetica, Arial, sans-serif" font-size="11" fill="#333333" dominant-baseline="middle">create new row version</text><line x1="252.4" y1="324.0" x2="395.2" y2="324.0" stroke="#555555" stroke-width="1.3" marker-end="url(#arrow)"/><text x="323.8" y="318.0" font-family="Helvetica, Arial, sans-serif" font-size="11" fill="#333333" text-anchor="middle">read row</text><line x1="395.2" y1="362.0" x2="538.0" y2="362.0" stroke="#555555" stroke-width="1.3" marker-end="url(#arrow)"/><text x="466.6" y="356.0" font-family="Helvetica, Arial, sans-serif" font-size="11" fill="#333333" text-anchor="middle">check snapshot visibility</text><line x1="395.2" y1="400.0" x2="252.4" y2="400.0" stroke="#555555" stroke-width="1.3" stroke-dasharray="5,4" marker-end="url(#arrow)"/><text x="323.8" y="394.0" font-family="Helvetica, Arial, sans-serif" font-size="11" fill="#333333" text-anchor="middle">return version visible to Transaction B</text><line x1="86.8" y1="438.0" x2="395.2" y2="438.0" stroke="#555555" stroke-width="1.3" marker-end="url(#arrow)"/><text x="241.0" y="432.0" font-family="Helvetica, Arial, sans-serif" font-size="11" fill="#333333" text-anchor="middle">commit</text><line x1="395.2" y1="476.0" x2="538.0" y2="476.0" stroke="#555555" stroke-width="1.3" marker-end="url(#arrow)"/><text x="466.6" y="470.0" font-family="Helvetica, Arial, sans-serif" font-size="11" fill="#333333" text-anchor="middle">publish commit finality</text></svg>
