<svg xmlns="http://www.w3.org/2000/svg" width="564" height="1884" viewBox="0 0 564 1884" font-family="Helvetica, Arial, sans-serif">
<defs><marker id="arrow" viewBox="0 0 10 10" refX="9" refY="5" markerWidth="8" markerHeight="8" orient="auto-start-end"><path d="M0,0 L10,5 L0,10 z" fill="#555555" stroke="#555555"/></marker></defs>
<rect x="0" y="0" width="564" height="1884" fill="#ffffff"/>
<line x1="33.0" y1="1852.0" x2="68.5" y2="1588.0" stroke="#555555" stroke-width="1.4" marker-end="url(#arrow)"/><line x1="68.5" y1="1622.0" x2="61.5" y2="1690.0" stroke="#555555" stroke-width="1.4" marker-end="url(#arrow)"/><line x1="61.5" y1="1724.0" x2="211.0" y2="1690.0" stroke="#555555" stroke-width="1.4" marker-end="url(#arrow)"/><line x1="61.5" y1="1724.0" x2="382.0" y2="1690.0" stroke="#555555" stroke-width="1.4" marker-end="url(#arrow)"/><line x1="61.5" y1="1724.0" x2="61.5" y2="1690.0" stroke="#555555" stroke-width="1.4" marker-end="url(#arrow)"/><line x1="211.0" y1="1724.0" x2="150.0" y2="1826.0" stroke="#555555" stroke-width="1.4" marker-end="url(#arrow)"/><line x1="211.0" y1="1724.0" x2="101.0" y2="1758.0" stroke="#555555" stroke-width="1.4" marker-end="url(#arrow)"/><line x1="382.0" y1="1724.0" x2="313.5" y2="1826.0" stroke="#555555" stroke-width="1.4" marker-end="url(#arrow)"/><line x1="382.0" y1="1724.0" x2="101.0" y2="1758.0" stroke="#555555" stroke-width="1.4" marker-end="url(#arrow)"/><line x1="150.0" y1="1860.0" x2="33.0" y2="1834.0" stroke="#555555" stroke-width="1.4" marker-end="url(#arrow)"/><line x1="313.5" y1="1860.0" x2="33.0" y2="1834.0" stroke="#555555" stroke-width="1.4" marker-end="url(#arrow)"/><line x1="101.0" y1="1792.0" x2="150.0" y2="1826.0" stroke="#555555" stroke-width="1.4" marker-end="url(#arrow)"/><line x1="101.0" y1="1792.0" x2="313.5" y2="1826.0" stroke="#555555" stroke-width="1.4" marker-end="url(#arrow)"/><line x1="101.0" y1="1792.0" x2="484.5" y2="1826.0" stroke="#555555" stroke-width="1.4" marker-end="url(#arrow)"/><circle cx="33.0" cy="1843.0" r="8" fill="#333333" stroke="#333333"/><rect x="24.0" y="1588.0" width="89.0" height="34.0" rx="8.0" ry="8.0" fill="#eef3fb" stroke="#3b5b92" stroke-width="1.5"/><text x="68.5" y="1605.0" font-family="Helvetica, Arial, sans-serif" font-size="13" fill="#15233f" text-anchor="middle" dominant-baseline="middle" font-weight="normal"><tspan x="68.5" dy="0.0">admitted</tspan></text><rect x="24.0" y="1690.0" width="75.0" height="34.0" rx="8.0" ry="8.0" fill="#eef3fb" stroke="#3b5b92" stroke-width="1.5"/><text x="61.5" y="1707.0" font-family="Helvetica, Arial, sans-serif" font-size="13" fill="#15233f" text-anchor="middle" dominant-baseline="middle" font-weight="normal"><tspan x="61.5" dy="0.0">active</tspan></text><rect x="159.0" y="1690.0" width="104.0" height="34.0" rx="8.0" ry="8.0" fill="#eef3fb" stroke="#3b5b92" stroke-width="1.5"/><text x="211.0" y="1707.0" font-family="Helvetica, Arial, sans-serif" font-size="13" fill="#15233f" text-anchor="middle" dominant-baseline="middle" font-weight="normal"><tspan x="211.0" dy="0.0">committing</tspan></text><rect x="323.0" y="1690.0" width="118.0" height="34.0" rx="8.0" ry="8.0" fill="#eef3fb" stroke="#3b5b92" stroke-width="1.5"/><text x="382.0" y="1707.0" font-family="Helvetica, Arial, sans-serif" font-size="13" fill="#15233f" text-anchor="middle" dominant-baseline="middle" font-weight="normal"><tspan x="382.0" dy="0.0">rolling_back</tspan></text><rect x="102.0" y="1826.0" width="96.0" height="34.0" rx="8.0" ry="8.0" fill="#eef3fb" stroke="#3b5b92" stroke-width="1.5"/><text x="150.0" y="1843.0" font-family="Helvetica, Arial, sans-serif" font-size="13" fill="#15233f" text-anchor="middle" dominant-baseline="middle" font-weight="normal"><tspan x="150.0" dy="0.0">committed</tspan></text><rect x="24.0" y="1758.0" width="154.0" height="34.0" rx="8.0" ry="8.0" fill="#eef3fb" stroke="#3b5b92" stroke-width="1.5"/><text x="101.0" y="1775.0" font-family="Helvetica, Arial, sans-serif" font-size="13" fill="#15233f" text-anchor="middle" dominant-baseline="middle" font-weight="normal"><tspan x="101.0" dy="0.0">recovery_required</tspan></text><rect x="258.0" y="1826.0" width="111.0" height="34.0" rx="8.0" ry="8.0" fill="#eef3fb" stroke="#3b5b92" stroke-width="1.5"/><text x="313.5" y="1843.0" font-family="Helvetica, Arial, sans-serif" font-size="13" fill="#15233f" text-anchor="middle" dominant-baseline="middle" font-weight="normal"><tspan x="313.5" dy="0.0">rolled_back</tspan></text><rect x="429.0" y="1826.0" width="111.0" height="34.0" rx="8.0" ry="8.0" fill="#eef3fb" stroke="#3b5b92" stroke-width="1.5"/><text x="484.5" y="1843.0" font-family="Helvetica, Arial, sans-serif" font-size="13" fill="#15233f" text-anchor="middle" dominant-baseline="middle" font-weight="normal"><tspan x="484.5" dy="0.0">fail_closed</tspan></text></svg>
