<svg xmlns="http://www.w3.org/2000/svg" width="670" height="326" viewBox="0 0 670 326" font-family="Helvetica, Arial, sans-serif">
<defs><marker id="arrow" viewBox="0 0 10 10" refX="9" refY="5" markerWidth="8" markerHeight="8" orient="auto-start-end"><path d="M0,0 L10,5 L0,10 z" fill="#555555" stroke="#555555"/></marker></defs>
<rect x="0" y="0" width="670" height="326" fill="#ffffff"/>
<line x1="94.0" y1="58.0" x2="94.0" y2="302.0" stroke="#aaaaaa" stroke-width="1" stroke-dasharray="4,4"/><line x1="244.0" y1="58.0" x2="244.0" y2="302.0" stroke="#aaaaaa" stroke-width="1" stroke-dasharray="4,4"/><line x1="364.0" y1="58.0" x2="364.0" y2="302.0" stroke="#aaaaaa" stroke-width="1" stroke-dasharray="4,4"/><line x1="485.2" y1="58.0" x2="485.2" y2="302.0" stroke="#aaaaaa" stroke-width="1" stroke-dasharray="4,4"/><line x1="606.4" y1="58.0" x2="606.4" y2="302.0" stroke="#aaaaaa" stroke-width="1" stroke-dasharray="4,4"/><rect x="24.0" y="24.0" width="140.0" height="34" rx="6" fill="#eef3fb" stroke="#3b5b92" stroke-width="1.5"/><text x="94.0" y="41.0" font-family="Helvetica, Arial, sans-serif" font-size="13" fill="#15233f" text-anchor="middle" dominant-baseline="middle" font-weight="normal"><tspan x="94.0" dy="0.0">SBsql statement</tspan></text><rect x="204.0" y="24.0" width="80.0" height="34" rx="6" fill="#eef3fb" stroke="#3b5b92" stroke-width="1.5"/><text x="244.0" y="41.0" font-family="Helvetica, Arial, sans-serif" font-size="13" fill="#15233f" text-anchor="middle" dominant-baseline="middle" font-weight="normal"><tspan x="244.0" dy="0.0">Binder</tspan></text><rect x="324.0" y="24.0" width="80.0" height="34" rx="6" fill="#eef3fb" stroke="#3b5b92" stroke-width="1.5"/><text x="364.0" y="41.0" font-family="Helvetica, Arial, sans-serif" font-size="13" fill="#15233f" text-anchor="middle" dominant-baseline="middle" font-weight="normal"><tspan x="364.0" dy="0.0">Engine</tspan></text><rect x="444.0" y="24.0" width="82.4" height="34" rx="6" fill="#eef3fb" stroke="#3b5b92" stroke-width="1.5"/><text x="485.2" y="41.0" font-family="Helvetica, Arial, sans-serif" font-size="13" fill="#15233f" text-anchor="middle" dominant-baseline="middle" font-weight="normal"><tspan x="485.2" dy="0.0">Catalog</tspan></text><rect x="566.4" y="24.0" width="80.0" height="34" rx="6" fill="#eef3fb" stroke="#3b5b92" stroke-width="1.5"/><text x="606.4" y="41.0" font-family="Helvetica, Arial, sans-serif" font-size="13" fill="#15233f" text-anchor="middle" dominant-baseline="middle" font-weight="normal"><tspan x="606.4" dy="0.0">MGA</tspan></text><line x1="94.0" y1="88.0" x2="244.0" y2="88.0" stroke="#555555" stroke-width="1.3" marker-end="url(#arrow)"/><text x="169.0" y="82.0" font-family="Helvetica, Arial, sans-serif" font-size="11" fill="#333333" text-anchor="middle">create table app.orders ...</text><line x1="244.0" y1="126.0" x2="364.0" y2="126.0" stroke="#555555" stroke-width="1.3" marker-end="url(#arrow)"/><text x="304.0" y="120.0" font-family="Helvetica, Arial, sans-serif" font-size="11" fill="#333333" text-anchor="middle">SBLR catalog mutation request</text><line x1="364.0" y1="164.0" x2="485.2" y2="164.0" stroke="#555555" stroke-width="1.3" marker-end="url(#arrow)"/><text x="424.6" y="158.0" font-family="Helvetica, Arial, sans-serif" font-size="11" fill="#333333" text-anchor="middle">allocate table UUID and descriptors</text><line x1="364.0" y1="202.0" x2="606.4" y2="202.0" stroke="#555555" stroke-width="1.3" marker-end="url(#arrow)"/><text x="485.2" y="196.0" font-family="Helvetica, Arial, sans-serif" font-size="11" fill="#333333" text-anchor="middle">record transaction-owned catalog versions</text><line x1="94.0" y1="240.0" x2="364.0" y2="240.0" stroke="#555555" stroke-width="1.3" marker-end="url(#arrow)"/><text x="229.0" y="234.0" font-family="Helvetica, Arial, sans-serif" font-size="11" fill="#333333" text-anchor="middle">commit</text><line x1="364.0" y1="278.0" x2="606.4" y2="278.0" stroke="#555555" stroke-width="1.3" marker-end="url(#arrow)"/><text x="485.2" y="272.0" font-family="Helvetica, Arial, sans-serif" font-size="11" fill="#333333" text-anchor="middle">publish commit finality</text></svg>
