<svg xmlns="http://www.w3.org/2000/svg" width="303" height="626" viewBox="0 0 303 626" font-family="Helvetica, Arial, sans-serif">
<defs><marker id="arrow" viewBox="0 0 10 10" refX="9" refY="5" markerWidth="8" markerHeight="8" orient="auto-start-end"><path d="M0,0 L10,5 L0,10 z" fill="#555555" stroke="#555555"/></marker></defs>
<rect x="0" y="0" width="303" height="626" fill="#ffffff"/>
<line x1="101.0" y1="58.0" x2="97.5" y2="92.0" stroke="#555555" stroke-width="1.4" marker-end="url(#arrow)"/><line x1="97.5" y1="126.0" x2="151.5" y2="160.0" stroke="#555555" stroke-width="1.4" marker-end="url(#arrow)"/><line x1="151.5" y1="194.0" x2="90.0" y2="228.0" stroke="#555555" stroke-width="1.4" marker-end="url(#arrow)"/><line x1="90.0" y1="262.0" x2="137.0" y2="296.0" stroke="#555555" stroke-width="1.4" marker-end="url(#arrow)"/><line x1="137.0" y1="330.0" x2="104.5" y2="364.0" stroke="#555555" stroke-width="1.4" marker-end="url(#arrow)"/><line x1="104.5" y1="398.0" x2="115.5" y2="432.0" stroke="#555555" stroke-width="1.4" marker-end="url(#arrow)"/><line x1="115.5" y1="466.0" x2="97.5" y2="500.0" stroke="#555555" stroke-width="1.4" marker-end="url(#arrow)"/><line x1="97.5" y1="534.0" x2="97.5" y2="568.0" stroke="#555555" stroke-width="1.4" marker-end="url(#arrow)"/><rect x="24.0" y="24.0" width="154.0" height="34.0" fill="#eef3fb" stroke="#3b5b92" stroke-width="1.5"/><text x="101.0" y="41.0" font-family="Helvetica, Arial, sans-serif" font-size="13" fill="#15233f" text-anchor="middle" dominant-baseline="middle" font-weight="normal"><tspan x="101.0" dy="0.0">SBsql source name</tspan></text><rect x="24.0" y="92.0" width="147.0" height="34.0" fill="#eef3fb" stroke="#3b5b92" stroke-width="1.5"/><text x="97.5" y="109.0" font-family="Helvetica, Arial, sans-serif" font-size="13" fill="#15233f" text-anchor="middle" dominant-baseline="middle" font-weight="normal"><tspan x="97.5" dy="0.0">Resolver context</tspan></text><rect x="24.0" y="160.0" width="255.0" height="34.0" fill="#eef3fb" stroke="#3b5b92" stroke-width="1.5"/><text x="151.5" y="177.0" font-family="Helvetica, Arial, sans-serif" font-size="13" fill="#15233f" text-anchor="middle" dominant-baseline="middle" font-weight="normal"><tspan x="151.5" dy="0.0">Sandbox and metadata visibility</tspan></text><rect x="24.0" y="228.0" width="132.0" height="34.0" fill="#eef3fb" stroke="#3b5b92" stroke-width="1.5"/><text x="90.0" y="245.0" font-family="Helvetica, Arial, sans-serif" font-size="13" fill="#15233f" text-anchor="middle" dominant-baseline="middle" font-weight="normal"><tspan x="90.0" dy="0.0">Catalog lookup</tspan></text><rect x="24.0" y="296.0" width="226.0" height="34.0" fill="#eef3fb" stroke="#3b5b92" stroke-width="1.5"/><text x="137.0" y="313.0" font-family="Helvetica, Arial, sans-serif" font-size="13" fill="#15233f" text-anchor="middle" dominant-baseline="middle" font-weight="normal"><tspan x="137.0" dy="0.0">UUID-bound object reference</tspan></text><rect x="24.0" y="364.0" width="161.0" height="34.0" fill="#eef3fb" stroke="#3b5b92" stroke-width="1.5"/><text x="104.5" y="381.0" font-family="Helvetica, Arial, sans-serif" font-size="13" fill="#15233f" text-anchor="middle" dominant-baseline="middle" font-weight="normal"><tspan x="104.5" dy="0.0">Descriptor binding</tspan></text><rect x="24.0" y="432.0" width="183.0" height="34.0" fill="#eef3fb" stroke="#3b5b92" stroke-width="1.5"/><text x="115.5" y="449.0" font-family="Helvetica, Arial, sans-serif" font-size="13" fill="#15233f" text-anchor="middle" dominant-baseline="middle" font-weight="normal"><tspan x="115.5" dy="0.0">SBLRExecutionEnvelope</tspan></text><rect x="24.0" y="500.0" width="147.0" height="34.0" fill="#eef3fb" stroke="#3b5b92" stroke-width="1.5"/><text x="97.5" y="517.0" font-family="Helvetica, Arial, sans-serif" font-size="13" fill="#15233f" text-anchor="middle" dominant-baseline="middle" font-weight="normal"><tspan x="97.5" dy="0.0">Server admission</tspan></text><rect x="24.0" y="568.0" width="147.0" height="34.0" fill="#eef3fb" stroke="#3b5b92" stroke-width="1.5"/><text x="97.5" y="585.0" font-family="Helvetica, Arial, sans-serif" font-size="13" fill="#15233f" text-anchor="middle" dominant-baseline="middle" font-weight="normal"><tspan x="97.5" dy="0.0">Engine execution</tspan></text></svg>
