<svg xmlns="http://www.w3.org/2000/svg" width="841" height="422" viewBox="0 0 841 422" font-family="Helvetica, Arial, sans-serif">
<defs><marker id="arrow" viewBox="0 0 10 10" refX="9" refY="5" markerWidth="8" markerHeight="8" orient="auto-start-end"><path d="M0,0 L10,5 L0,10 z" fill="#555555" stroke="#555555"/></marker></defs>
<rect x="0" y="0" width="841" height="422" fill="#ffffff"/>
<line x1="97.5" y1="58.0" x2="220.0" y2="92.0" stroke="#555555" stroke-width="1.4" marker-end="url(#arrow)"/><line x1="220.0" y1="126.0" x2="546.0" y2="160.0" stroke="#555555" stroke-width="1.4" marker-end="url(#arrow)"/><rect x="369.1" y="134.0" width="27.8" height="16" fill="#ffffff" stroke="none"/><text x="383.0" y="143.0" font-family="Helvetica, Arial, sans-serif" font-size="11" fill="#333333" text-anchor="middle" dominant-baseline="middle">yes</text><line x1="220.0" y1="126.0" x2="220.0" y2="160.0" stroke="#555555" stroke-width="1.4" marker-end="url(#arrow)"/><rect x="209.4" y="134.0" width="21.2" height="16" fill="#ffffff" stroke="none"/><text x="220.0" y="143.0" font-family="Helvetica, Arial, sans-serif" font-size="11" fill="#333333" text-anchor="middle" dominant-baseline="middle">no</text><line x1="220.0" y1="194.0" x2="119.0" y2="364.0" stroke="#555555" stroke-width="1.4" marker-end="url(#arrow)"/><rect x="155.6" y="270.0" width="27.8" height="16" fill="#ffffff" stroke="none"/><text x="169.5" y="279.0" font-family="Helvetica, Arial, sans-serif" font-size="11" fill="#333333" text-anchor="middle" dominant-baseline="middle">yes</text><line x1="220.0" y1="194.0" x2="198.0" y2="228.0" stroke="#555555" stroke-width="1.4" marker-end="url(#arrow)"/><rect x="198.4" y="202.0" width="21.2" height="16" fill="#ffffff" stroke="none"/><text x="209.0" y="211.0" font-family="Helvetica, Arial, sans-serif" font-size="11" fill="#333333" text-anchor="middle" dominant-baseline="middle">no</text><line x1="198.0" y1="262.0" x2="740.0" y2="296.0" stroke="#555555" stroke-width="1.4" marker-end="url(#arrow)"/><rect x="455.1" y="270.0" width="27.8" height="16" fill="#ffffff" stroke="none"/><text x="469.0" y="279.0" font-family="Helvetica, Arial, sans-serif" font-size="11" fill="#333333" text-anchor="middle" dominant-baseline="middle">yes</text><line x1="198.0" y1="262.0" x2="313.5" y2="296.0" stroke="#555555" stroke-width="1.4" marker-end="url(#arrow)"/><rect x="245.2" y="270.0" width="21.2" height="16" fill="#ffffff" stroke="none"/><text x="255.8" y="279.0" font-family="Helvetica, Arial, sans-serif" font-size="11" fill="#333333" text-anchor="middle" dominant-baseline="middle">no</text><line x1="313.5" y1="330.0" x2="376.0" y2="364.0" stroke="#555555" stroke-width="1.4" marker-end="url(#arrow)"/><rect x="330.9" y="338.0" width="27.8" height="16" fill="#ffffff" stroke="none"/><text x="344.8" y="347.0" font-family="Helvetica, Arial, sans-serif" font-size="11" fill="#333333" text-anchor="middle" dominant-baseline="middle">yes</text><line x1="313.5" y1="330.0" x2="119.0" y2="364.0" stroke="#555555" stroke-width="1.4" marker-end="url(#arrow)"/><rect x="205.7" y="338.0" width="21.2" height="16" fill="#ffffff" stroke="none"/><text x="216.2" y="347.0" font-family="Helvetica, Arial, sans-serif" font-size="11" fill="#333333" text-anchor="middle" dominant-baseline="middle">no</text><rect x="24.0" y="24.0" width="147.0" height="34.0" fill="#eef3fb" stroke="#3b5b92" stroke-width="1.5"/><text x="97.5" y="41.0" font-family="Helvetica, Arial, sans-serif" font-size="13" fill="#15233f" text-anchor="middle" dominant-baseline="middle" font-weight="normal"><tspan x="97.5" dy="0.0">Application need</tspan></text><polygon points="220.0,92.0 416.0,109.0 220.0,126.0 24.0,109.0" fill="#eef3fb" stroke="#3b5b92" stroke-width="1.5"/><text x="220.0" y="109.0" font-family="Helvetica, Arial, sans-serif" font-size="13" fill="#15233f" text-anchor="middle" dominant-baseline="middle" font-weight="normal"><tspan x="220.0" dy="0.0">Should the engine live in the application process?</tspan></text><polygon points="220.0,160.0 416.0,177.0 220.0,194.0 24.0,177.0" fill="#eef3fb" stroke="#3b5b92" stroke-width="1.5"/><text x="220.0" y="177.0" font-family="Helvetica, Arial, sans-serif" font-size="13" fill="#15233f" text-anchor="middle" dominant-baseline="middle" font-weight="normal"><tspan x="220.0" dy="0.0">Do several local clients need one service process?</tspan></text><polygon points="198.0,228.0 372.0,245.0 198.0,262.0 24.0,245.0" fill="#eef3fb" stroke="#3b5b92" stroke-width="1.5"/><text x="198.0" y="245.0" font-family="Helvetica, Arial, sans-serif" font-size="13" fill="#15233f" text-anchor="middle" dominant-baseline="middle" font-weight="normal"><tspan x="198.0" dy="0.0">Do clients need listener and parser routing?</tspan></text><polygon points="313.5,296.0 603.0,313.0 313.5,330.0 24.0,313.0" fill="#eef3fb" stroke="#3b5b92" stroke-width="1.5"/><text x="313.5" y="313.0" font-family="Helvetica, Arial, sans-serif" font-size="13" fill="#15233f" text-anchor="middle" dominant-baseline="middle" font-weight="normal"><tspan x="313.5" dy="0.0">Do several installations need managed entry and shared identity conventions?</tspan></text><rect x="476.0" y="160.0" width="140.0" height="34.0" fill="#eef3fb" stroke="#3b5b92" stroke-width="1.5"/><text x="546.0" y="177.0" font-family="Helvetica, Arial, sans-serif" font-size="13" fill="#15233f" text-anchor="middle" dominant-baseline="middle" font-weight="normal"><tspan x="546.0" dy="0.0">Embedded engine</tspan></text><rect x="24.0" y="364.0" width="190.0" height="34.0" fill="#eef3fb" stroke="#3b5b92" stroke-width="1.5"/><text x="119.0" y="381.0" font-family="Helvetica, Arial, sans-serif" font-size="13" fill="#15233f" text-anchor="middle" dominant-baseline="middle" font-weight="normal"><tspan x="119.0" dy="0.0">Single-node IPC server</tspan></text><rect x="663.0" y="296.0" width="154.0" height="34.0" fill="#eef3fb" stroke="#3b5b92" stroke-width="1.5"/><text x="740.0" y="313.0" font-family="Helvetica, Arial, sans-serif" font-size="13" fill="#15233f" text-anchor="middle" dominant-baseline="middle" font-weight="normal"><tspan x="740.0" dy="0.0">Standalone server</tspan></text><rect x="274.0" y="364.0" width="204.0" height="34.0" fill="#eef3fb" stroke="#3b5b92" stroke-width="1.5"/><text x="376.0" y="381.0" font-family="Helvetica, Arial, sans-serif" font-size="13" fill="#15233f" text-anchor="middle" dominant-baseline="middle" font-weight="normal"><tspan x="376.0" dy="0.0">Managed group deployment</tspan></text></svg>
