<svg xmlns="http://www.w3.org/2000/svg" width="545" height="490" viewBox="0 0 545 490" font-family="Helvetica, Arial, sans-serif">
<defs><marker id="arrow" viewBox="0 0 10 10" refX="9" refY="5" markerWidth="8" markerHeight="8" orient="auto-start-end"><path d="M0,0 L10,5 L0,10 z" fill="#555555" stroke="#555555"/></marker></defs>
<rect x="0" y="0" width="545" height="490" fill="#ffffff"/>
<line x1="158.5" y1="58.0" x2="119.0" y2="92.0" stroke="#555555" stroke-width="1.4" marker-end="url(#arrow)"/><line x1="419.0" y1="58.0" x2="119.0" y2="92.0" stroke="#555555" stroke-width="1.4" marker-end="url(#arrow)"/><line x1="119.0" y1="126.0" x2="94.0" y2="160.0" stroke="#555555" stroke-width="1.4" marker-end="url(#arrow)"/><line x1="94.0" y1="194.0" x2="140.5" y2="228.0" stroke="#555555" stroke-width="1.4" marker-end="url(#arrow)"/><line x1="140.5" y1="262.0" x2="115.5" y2="296.0" stroke="#555555" stroke-width="1.4" marker-end="url(#arrow)"/><line x1="115.5" y1="330.0" x2="169.5" y2="364.0" stroke="#555555" stroke-width="1.4" marker-end="url(#arrow)"/><line x1="169.5" y1="398.0" x2="122.5" y2="432.0" stroke="#555555" stroke-width="1.4" marker-end="url(#arrow)"/><line x1="119.0" y1="126.0" x2="401.0" y2="432.0" stroke="#555555" stroke-width="1.4" marker-end="url(#arrow)"/><line x1="94.0" y1="194.0" x2="401.0" y2="432.0" stroke="#555555" stroke-width="1.4" marker-end="url(#arrow)"/><line x1="140.5" y1="262.0" x2="401.0" y2="432.0" stroke="#555555" stroke-width="1.4" marker-end="url(#arrow)"/><line x1="115.5" y1="330.0" x2="401.0" y2="432.0" stroke="#555555" stroke-width="1.4" marker-end="url(#arrow)"/><line x1="169.5" y1="398.0" x2="401.0" y2="432.0" stroke="#555555" stroke-width="1.4" marker-end="url(#arrow)"/><rect x="24.0" y="24.0" width="269.0" height="34.0" fill="#eef3fb" stroke="#3b5b92" stroke-width="1.5"/><text x="158.5" y="41.0" font-family="Helvetica, Arial, sans-serif" font-size="13" fill="#15233f" text-anchor="middle" dominant-baseline="middle" font-weight="normal"><tspan x="158.5" dy="0.0">Configuration files and templates</tspan></text><rect x="353.0" y="24.0" width="132.0" height="34.0" fill="#eef3fb" stroke="#3b5b92" stroke-width="1.5"/><text x="419.0" y="41.0" font-family="Helvetica, Arial, sans-serif" font-size="13" fill="#15233f" text-anchor="middle" dominant-baseline="middle" font-weight="normal"><tspan x="419.0" dy="0.0">Resource files</tspan></text><rect x="24.0" y="92.0" width="190.0" height="34.0" fill="#eef3fb" stroke="#3b5b92" stroke-width="1.5"/><text x="119.0" y="109.0" font-family="Helvetica, Arial, sans-serif" font-size="13" fill="#15233f" text-anchor="middle" dominant-baseline="middle" font-weight="normal"><tspan x="119.0" dy="0.0">Validate configuration</tspan></text><rect x="24.0" y="160.0" width="140.0" height="34.0" fill="#eef3fb" stroke="#3b5b92" stroke-width="1.5"/><text x="94.0" y="177.0" font-family="Helvetica, Arial, sans-serif" font-size="13" fill="#15233f" text-anchor="middle" dominant-baseline="middle" font-weight="normal"><tspan x="94.0" dy="0.0">Start component</tspan></text><rect x="24.0" y="228.0" width="233.0" height="34.0" fill="#eef3fb" stroke="#3b5b92" stroke-width="1.5"/><text x="140.5" y="245.0" font-family="Helvetica, Arial, sans-serif" font-size="13" fill="#15233f" text-anchor="middle" dominant-baseline="middle" font-weight="normal"><tspan x="140.5" dy="0.0">Open database or local route</tspan></text><rect x="24.0" y="296.0" width="183.0" height="34.0" fill="#eef3fb" stroke="#3b5b92" stroke-width="1.5"/><text x="115.5" y="313.0" font-family="Helvetica, Arial, sans-serif" font-size="13" fill="#15233f" text-anchor="middle" dominant-baseline="middle" font-weight="normal"><tspan x="115.5" dy="0.0">Authenticate identity</tspan></text><rect x="24.0" y="364.0" width="291.0" height="34.0" fill="#eef3fb" stroke="#3b5b92" stroke-width="1.5"/><text x="169.5" y="381.0" font-family="Helvetica, Arial, sans-serif" font-size="13" fill="#15233f" text-anchor="middle" dominant-baseline="middle" font-weight="normal"><tspan x="169.5" dy="0.0">Materialize authorization and policy</tspan></text><rect x="24.0" y="432.0" width="197.0" height="34.0" fill="#eef3fb" stroke="#3b5b92" stroke-width="1.5"/><text x="122.5" y="449.0" font-family="Helvetica, Arial, sans-serif" font-size="13" fill="#15233f" text-anchor="middle" dominant-baseline="middle" font-weight="normal"><tspan x="122.5" dy="0.0">Serve admitted requests</tspan></text><rect x="281.0" y="432.0" width="240.0" height="34.0" fill="#eef3fb" stroke="#3b5b92" stroke-width="1.5"/><text x="401.0" y="449.0" font-family="Helvetica, Arial, sans-serif" font-size="13" fill="#15233f" text-anchor="middle" dominant-baseline="middle" font-weight="normal"><tspan x="401.0" dy="0.0">Return controlled diagnostics</tspan></text></svg>
