<svg xmlns="http://www.w3.org/2000/svg" width="732" height="540" viewBox="0 0 732 540" font-family="Helvetica, Arial, sans-serif">
<defs><marker id="arrow" viewBox="0 0 10 10" refX="9" refY="5" markerWidth="8" markerHeight="8" orient="auto-start-end"><path d="M0,0 L10,5 L0,10 z" fill="#555555" stroke="#555555"/></marker></defs>
<rect x="0" y="0" width="732" height="540" fill="#ffffff"/>
<line x1="64.0" y1="58.0" x2="64.0" y2="516.0" stroke="#aaaaaa" stroke-width="1" stroke-dasharray="4,4"/><line x1="184.0" y1="58.0" x2="184.0" y2="516.0" stroke="#aaaaaa" stroke-width="1" stroke-dasharray="4,4"/><line x1="304.0" y1="58.0" x2="304.0" y2="516.0" stroke="#aaaaaa" stroke-width="1" stroke-dasharray="4,4"/><line x1="425.2" y1="58.0" x2="425.2" y2="516.0" stroke="#aaaaaa" stroke-width="1" stroke-dasharray="4,4"/><line x1="546.4" y1="58.0" x2="546.4" y2="516.0" stroke="#aaaaaa" stroke-width="1" stroke-dasharray="4,4"/><line x1="667.6" y1="58.0" x2="667.6" y2="516.0" stroke="#aaaaaa" stroke-width="1" stroke-dasharray="4,4"/><rect x="24.0" y="24.0" width="80.0" height="34" rx="6" fill="#eef3fb" stroke="#3b5b92" stroke-width="1.5"/><text x="64.0" y="41.0" font-family="Helvetica, Arial, sans-serif" font-size="13" fill="#15233f" text-anchor="middle" dominant-baseline="middle" font-weight="normal"><tspan x="64.0" dy="0.0">Client</tspan></text><rect x="144.0" y="24.0" width="80.0" height="34" rx="6" fill="#eef3fb" stroke="#3b5b92" stroke-width="1.5"/><text x="184.0" y="41.0" font-family="Helvetica, Arial, sans-serif" font-size="13" fill="#15233f" text-anchor="middle" dominant-baseline="middle" font-weight="normal"><tspan x="184.0" dy="0.0">Parser</tspan></text><rect x="264.0" y="24.0" width="80.0" height="34" rx="6" fill="#eef3fb" stroke="#3b5b92" stroke-width="1.5"/><text x="304.0" y="41.0" font-family="Helvetica, Arial, sans-serif" font-size="13" fill="#15233f" text-anchor="middle" dominant-baseline="middle" font-weight="normal"><tspan x="304.0" dy="0.0">SBcore</tspan></text><rect x="384.0" y="24.0" width="82.4" height="34" rx="6" fill="#eef3fb" stroke="#3b5b92" stroke-width="1.5"/><text x="425.2" y="41.0" font-family="Helvetica, Arial, sans-serif" font-size="13" fill="#15233f" text-anchor="middle" dominant-baseline="middle" font-weight="normal"><tspan x="425.2" dy="0.0">Catalog</tspan></text><rect x="506.4" y="24.0" width="80.0" height="34" rx="6" fill="#eef3fb" stroke="#3b5b92" stroke-width="1.5"/><text x="546.4" y="41.0" font-family="Helvetica, Arial, sans-serif" font-size="13" fill="#15233f" text-anchor="middle" dominant-baseline="middle" font-weight="normal"><tspan x="546.4" dy="0.0">MGA</tspan></text><rect x="626.4" y="24.0" width="82.4" height="34" rx="6" fill="#eef3fb" stroke="#3b5b92" stroke-width="1.5"/><text x="667.6" y="41.0" font-family="Helvetica, Arial, sans-serif" font-size="13" fill="#15233f" text-anchor="middle" dominant-baseline="middle" font-weight="normal"><tspan x="667.6" dy="0.0">Storage</tspan></text><line x1="64.0" y1="88.0" x2="184.0" y2="88.0" stroke="#555555" stroke-width="1.3" marker-end="url(#arrow)"/><text x="124.0" y="82.0" font-family="Helvetica, Arial, sans-serif" font-size="11" fill="#333333" text-anchor="middle">Client request</text><path d="M184.0,126.0 h40 v18 h-40" fill="none" stroke="#555555" stroke-width="1.3" marker-end="url(#arrow)"/><text x="230.0" y="122.0" font-family="Helvetica, Arial, sans-serif" font-size="11" fill="#333333" dominant-baseline="middle">Parse accepted surface</text><path d="M184.0,172.0 h40 v18 h-40" fill="none" stroke="#555555" stroke-width="1.3" marker-end="url(#arrow)"/><text x="230.0" y="168.0" font-family="Helvetica, Arial, sans-serif" font-size="11" fill="#333333" dominant-baseline="middle">Bind visible names and parameters</text><line x1="184.0" y1="218.0" x2="304.0" y2="218.0" stroke="#555555" stroke-width="1.3" marker-end="url(#arrow)"/><text x="244.0" y="212.0" font-family="Helvetica, Arial, sans-serif" font-size="11" fill="#333333" text-anchor="middle">Submit bound request</text><line x1="304.0" y1="256.0" x2="425.2" y2="256.0" stroke="#555555" stroke-width="1.3" marker-end="url(#arrow)"/><text x="364.6" y="250.0" font-family="Helvetica, Arial, sans-serif" font-size="11" fill="#333333" text-anchor="middle">Resolve UUID descriptors</text><line x1="304.0" y1="294.0" x2="546.4" y2="294.0" stroke="#555555" stroke-width="1.3" marker-end="url(#arrow)"/><text x="425.2" y="288.0" font-family="Helvetica, Arial, sans-serif" font-size="11" fill="#333333" text-anchor="middle">Check transaction visibility and state</text><path d="M304.0,332.0 h40 v18 h-40" fill="none" stroke="#555555" stroke-width="1.3" marker-end="url(#arrow)"/><text x="350.0" y="328.0" font-family="Helvetica, Arial, sans-serif" font-size="11" fill="#333333" dominant-baseline="middle">Check authorization and policy</text><line x1="304.0" y1="378.0" x2="667.6" y2="378.0" stroke="#555555" stroke-width="1.3" marker-end="url(#arrow)"/><text x="485.8" y="372.0" font-family="Helvetica, Arial, sans-serif" font-size="11" fill="#333333" text-anchor="middle">Execute admitted read or write</text><line x1="667.6" y1="416.0" x2="304.0" y2="416.0" stroke="#555555" stroke-width="1.3" stroke-dasharray="5,4" marker-end="url(#arrow)"/><text x="485.8" y="410.0" font-family="Helvetica, Arial, sans-serif" font-size="11" fill="#333333" text-anchor="middle">Data or durable status</text><line x1="304.0" y1="454.0" x2="184.0" y2="454.0" stroke="#555555" stroke-width="1.3" stroke-dasharray="5,4" marker-end="url(#arrow)"/><text x="244.0" y="448.0" font-family="Helvetica, Arial, sans-serif" font-size="11" fill="#333333" text-anchor="middle">Result or message vector</text><line x1="184.0" y1="492.0" x2="64.0" y2="492.0" stroke="#555555" stroke-width="1.3" stroke-dasharray="5,4" marker-end="url(#arrow)"/><text x="124.0" y="486.0" font-family="Helvetica, Arial, sans-serif" font-size="11" fill="#333333" text-anchor="middle">Client-shaped response</text></svg>
