<svg xmlns="http://www.w3.org/2000/svg" width="864" height="440" viewBox="0 0 864 440" font-family="Helvetica, Arial, sans-serif">
<defs><marker id="arrow" viewBox="0 0 10 10" refX="9" refY="5" markerWidth="8" markerHeight="8" orient="auto-start-end"><path d="M0,0 L10,5 L0,10 z" fill="#555555" stroke="#555555"/></marker></defs>
<rect x="0" y="0" width="864" height="440" fill="#ffffff"/>
<line x1="64.0" y1="58.0" x2="64.0" y2="416.0" stroke="#aaaaaa" stroke-width="1" stroke-dasharray="4,4"/><line x1="199.6" y1="58.0" x2="199.6" y2="416.0" stroke="#aaaaaa" stroke-width="1" stroke-dasharray="4,4"/><line x1="386.8" y1="58.0" x2="386.8" y2="416.0" stroke="#aaaaaa" stroke-width="1" stroke-dasharray="4,4"/><line x1="558.4" y1="58.0" x2="558.4" y2="416.0" stroke="#aaaaaa" stroke-width="1" stroke-dasharray="4,4"/><line x1="679.6" y1="58.0" x2="679.6" y2="416.0" stroke="#aaaaaa" stroke-width="1" stroke-dasharray="4,4"/><line x1="800.8" y1="58.0" x2="800.8" y2="416.0" stroke="#aaaaaa" stroke-width="1" stroke-dasharray="4,4"/><rect x="24.0" y="24.0" width="80.0" height="34" rx="6" fill="#eef3fb" stroke="#3b5b92" stroke-width="1.5"/><text x="64.0" y="41.0" font-family="Helvetica, Arial, sans-serif" font-size="13" fill="#15233f" text-anchor="middle" dominant-baseline="middle" font-weight="normal"><tspan x="64.0" dy="0.0">Client</tspan></text><rect x="144.0" y="24.0" width="111.2" height="34" rx="6" fill="#eef3fb" stroke="#3b5b92" stroke-width="1.5"/><text x="199.6" y="41.0" font-family="Helvetica, Arial, sans-serif" font-size="13" fill="#15233f" text-anchor="middle" dominant-baseline="middle" font-weight="normal"><tspan x="199.6" dy="0.0">Entry point</tspan></text><rect x="295.2" y="24.0" width="183.2" height="34" rx="6" fill="#eef3fb" stroke="#3b5b92" stroke-width="1.5"/><text x="386.8" y="41.0" font-family="Helvetica, Arial, sans-serif" font-size="13" fill="#15233f" text-anchor="middle" dominant-baseline="middle" font-weight="normal"><tspan x="386.8" dy="0.0">Authentication source</tspan></text><rect x="518.4" y="24.0" width="80.0" height="34" rx="6" fill="#eef3fb" stroke="#3b5b92" stroke-width="1.5"/><text x="558.4" y="41.0" font-family="Helvetica, Arial, sans-serif" font-size="13" fill="#15233f" text-anchor="middle" dominant-baseline="middle" font-weight="normal"><tspan x="558.4" dy="0.0">SBcore</tspan></text><rect x="638.4" y="24.0" width="82.4" height="34" rx="6" fill="#eef3fb" stroke="#3b5b92" stroke-width="1.5"/><text x="679.6" y="41.0" font-family="Helvetica, Arial, sans-serif" font-size="13" fill="#15233f" text-anchor="middle" dominant-baseline="middle" font-weight="normal"><tspan x="679.6" dy="0.0">Catalog</tspan></text><rect x="760.8" y="24.0" width="80.0" height="34" rx="6" fill="#eef3fb" stroke="#3b5b92" stroke-width="1.5"/><text x="800.8" y="41.0" font-family="Helvetica, Arial, sans-serif" font-size="13" fill="#15233f" text-anchor="middle" dominant-baseline="middle" font-weight="normal"><tspan x="800.8" dy="0.0">Policy</tspan></text><line x1="64.0" y1="88.0" x2="199.6" y2="88.0" stroke="#555555" stroke-width="1.3" marker-end="url(#arrow)"/><text x="131.8" y="82.0" font-family="Helvetica, Arial, sans-serif" font-size="11" fill="#333333" text-anchor="middle">connect</text><line x1="199.6" y1="126.0" x2="386.8" y2="126.0" stroke="#555555" stroke-width="1.3" marker-end="url(#arrow)"/><text x="293.2" y="120.0" font-family="Helvetica, Arial, sans-serif" font-size="11" fill="#333333" text-anchor="middle">authenticate identity</text><line x1="386.8" y1="164.0" x2="199.6" y2="164.0" stroke="#555555" stroke-width="1.3" stroke-dasharray="5,4" marker-end="url(#arrow)"/><text x="293.2" y="158.0" font-family="Helvetica, Arial, sans-serif" font-size="11" fill="#333333" text-anchor="middle">identity result</text><line x1="199.6" y1="202.0" x2="558.4" y2="202.0" stroke="#555555" stroke-width="1.3" marker-end="url(#arrow)"/><text x="379.0" y="196.0" font-family="Helvetica, Arial, sans-serif" font-size="11" fill="#333333" text-anchor="middle">request session</text><line x1="558.4" y1="240.0" x2="679.6" y2="240.0" stroke="#555555" stroke-width="1.3" marker-end="url(#arrow)"/><text x="619.0" y="234.0" font-family="Helvetica, Arial, sans-serif" font-size="11" fill="#333333" text-anchor="middle">load identity, grants, roots, descriptors</text><line x1="558.4" y1="278.0" x2="800.8" y2="278.0" stroke="#555555" stroke-width="1.3" marker-end="url(#arrow)"/><text x="679.6" y="272.0" font-family="Helvetica, Arial, sans-serif" font-size="11" fill="#333333" text-anchor="middle">materialize policy context</text><line x1="800.8" y1="316.0" x2="558.4" y2="316.0" stroke="#555555" stroke-width="1.3" stroke-dasharray="5,4" marker-end="url(#arrow)"/><text x="679.6" y="310.0" font-family="Helvetica, Arial, sans-serif" font-size="11" fill="#333333" text-anchor="middle">admitted or denied</text><line x1="558.4" y1="354.0" x2="199.6" y2="354.0" stroke="#555555" stroke-width="1.3" stroke-dasharray="5,4" marker-end="url(#arrow)"/><text x="379.0" y="348.0" font-family="Helvetica, Arial, sans-serif" font-size="11" fill="#333333" text-anchor="middle">session result or message vector</text><line x1="199.6" y1="392.0" x2="64.0" y2="392.0" stroke="#555555" stroke-width="1.3" stroke-dasharray="5,4" marker-end="url(#arrow)"/><text x="131.8" y="386.0" font-family="Helvetica, Arial, sans-serif" font-size="11" fill="#333333" text-anchor="middle">connected or refused</text></svg>
