<svg xmlns="http://www.w3.org/2000/svg" width="416" height="694" viewBox="0 0 416 694" font-family="Helvetica, Arial, sans-serif">
<defs><marker id="arrow" viewBox="0 0 10 10" refX="9" refY="5" markerWidth="8" markerHeight="8" orient="auto-start-end"><path d="M0,0 L10,5 L0,10 z" fill="#555555" stroke="#555555"/></marker></defs>
<rect x="0" y="0" width="416" height="694" fill="#ffffff"/>
<line x1="72.0" y1="58.0" x2="83.0" y2="92.0" stroke="#555555" stroke-width="1.4" marker-end="url(#arrow)"/><line x1="83.0" y1="126.0" x2="97.5" y2="160.0" stroke="#555555" stroke-width="1.4" marker-end="url(#arrow)"/><line x1="97.5" y1="194.0" x2="108.0" y2="228.0" stroke="#555555" stroke-width="1.4" marker-end="url(#arrow)"/><line x1="108.0" y1="262.0" x2="90.0" y2="296.0" stroke="#555555" stroke-width="1.4" marker-end="url(#arrow)"/><line x1="90.0" y1="330.0" x2="130.0" y2="364.0" stroke="#555555" stroke-width="1.4" marker-end="url(#arrow)"/><line x1="130.0" y1="398.0" x2="90.0" y2="432.0" stroke="#555555" stroke-width="1.4" marker-end="url(#arrow)"/><line x1="90.0" y1="466.0" x2="119.0" y2="500.0" stroke="#555555" stroke-width="1.4" marker-end="url(#arrow)"/><line x1="119.0" y1="534.0" x2="119.0" y2="568.0" stroke="#555555" stroke-width="1.4" marker-end="url(#arrow)"/><line x1="119.0" y1="602.0" x2="112.0" y2="636.0" stroke="#555555" stroke-width="1.4" marker-end="url(#arrow)"/><line x1="90.0" y1="466.0" x2="326.0" y2="636.0" stroke="#555555" stroke-width="1.4" marker-end="url(#arrow)"/><line x1="119.0" y1="534.0" x2="326.0" y2="636.0" stroke="#555555" stroke-width="1.4" marker-end="url(#arrow)"/><line x1="119.0" y1="602.0" x2="326.0" y2="636.0" stroke="#555555" stroke-width="1.4" marker-end="url(#arrow)"/><rect x="24.0" y="24.0" width="96.0" height="34.0" fill="#eef3fb" stroke="#3b5b92" stroke-width="1.5"/><text x="72.0" y="41.0" font-family="Helvetica, Arial, sans-serif" font-size="13" fill="#15233f" text-anchor="middle" dominant-baseline="middle" font-weight="normal"><tspan x="72.0" dy="0.0">Text name</tspan></text><rect x="24.0" y="92.0" width="118.0" height="34.0" fill="#eef3fb" stroke="#3b5b92" stroke-width="1.5"/><text x="83.0" y="109.0" font-family="Helvetica, Arial, sans-serif" font-size="13" fill="#15233f" text-anchor="middle" dominant-baseline="middle" font-weight="normal"><tspan x="83.0" dy="0.0">Parser route</tspan></text><rect x="24.0" y="160.0" width="147.0" height="34.0" fill="#eef3fb" stroke="#3b5b92" stroke-width="1.5"/><text x="97.5" y="177.0" font-family="Helvetica, Arial, sans-serif" font-size="13" fill="#15233f" text-anchor="middle" dominant-baseline="middle" font-weight="normal"><tspan x="97.5" dy="0.0">Session identity</tspan></text><rect x="24.0" y="228.0" width="168.0" height="34.0" fill="#eef3fb" stroke="#3b5b92" stroke-width="1.5"/><text x="108.0" y="245.0" font-family="Helvetica, Arial, sans-serif" font-size="13" fill="#15233f" text-anchor="middle" dominant-baseline="middle" font-weight="normal"><tspan x="108.0" dy="0.0">Visible schema root</tspan></text><rect x="24.0" y="296.0" width="132.0" height="34.0" fill="#eef3fb" stroke="#3b5b92" stroke-width="1.5"/><text x="90.0" y="313.0" font-family="Helvetica, Arial, sans-serif" font-size="13" fill="#15233f" text-anchor="middle" dominant-baseline="middle" font-weight="normal"><tspan x="90.0" dy="0.0">Current schema</tspan></text><rect x="24.0" y="364.0" width="212.0" height="34.0" fill="#eef3fb" stroke="#3b5b92" stroke-width="1.5"/><text x="130.0" y="381.0" font-family="Helvetica, Arial, sans-serif" font-size="13" fill="#15233f" text-anchor="middle" dominant-baseline="middle" font-weight="normal"><tspan x="130.0" dy="0.0">Search path if applicable</tspan></text><rect x="24.0" y="432.0" width="132.0" height="34.0" fill="#eef3fb" stroke="#3b5b92" stroke-width="1.5"/><text x="90.0" y="449.0" font-family="Helvetica, Arial, sans-serif" font-size="13" fill="#15233f" text-anchor="middle" dominant-baseline="middle" font-weight="normal"><tspan x="90.0" dy="0.0">Catalog lookup</tspan></text><rect x="24.0" y="500.0" width="190.0" height="34.0" fill="#eef3fb" stroke="#3b5b92" stroke-width="1.5"/><text x="119.0" y="517.0" font-family="Helvetica, Arial, sans-serif" font-size="13" fill="#15233f" text-anchor="middle" dominant-baseline="middle" font-weight="normal"><tspan x="119.0" dy="0.0">Grant and policy check</tspan></text><rect x="24.0" y="568.0" width="190.0" height="34.0" fill="#eef3fb" stroke="#3b5b92" stroke-width="1.5"/><text x="119.0" y="585.0" font-family="Helvetica, Arial, sans-serif" font-size="13" fill="#15233f" text-anchor="middle" dominant-baseline="middle" font-weight="normal"><tspan x="119.0" dy="0.0">Transaction visibility</tspan></text><rect x="24.0" y="636.0" width="176.0" height="34.0" fill="#eef3fb" stroke="#3b5b92" stroke-width="1.5"/><text x="112.0" y="653.0" font-family="Helvetica, Arial, sans-serif" font-size="13" fill="#15233f" text-anchor="middle" dominant-baseline="middle" font-weight="normal"><tspan x="112.0" dy="0.0">Resolved object UUID</tspan></text><rect x="260.0" y="636.0" width="132.0" height="34.0" fill="#eef3fb" stroke="#3b5b92" stroke-width="1.5"/><text x="326.0" y="653.0" font-family="Helvetica, Arial, sans-serif" font-size="13" fill="#15233f" text-anchor="middle" dominant-baseline="middle" font-weight="normal"><tspan x="326.0" dy="0.0">Message vector</tspan></text></svg>
