<svg xmlns="http://www.w3.org/2000/svg" width="630" height="286" viewBox="0 0 630 286" font-family="Helvetica, Arial, sans-serif">
<defs><marker id="arrow" viewBox="0 0 10 10" refX="9" refY="5" markerWidth="8" markerHeight="8" orient="auto-start-end"><path d="M0,0 L10,5 L0,10 z" fill="#555555" stroke="#555555"/></marker></defs>
<rect x="0" y="0" width="630" height="286" fill="#ffffff"/>
<line x1="83.0" y1="58.0" x2="112.0" y2="92.0" stroke="#555555" stroke-width="1.4" marker-end="url(#arrow)"/><line x1="290.0" y1="58.0" x2="112.0" y2="92.0" stroke="#555555" stroke-width="1.4" marker-end="url(#arrow)"/><line x1="112.0" y1="126.0" x2="61.5" y2="160.0" stroke="#555555" stroke-width="1.4" marker-end="url(#arrow)"/><line x1="61.5" y1="194.0" x2="140.5" y2="228.0" stroke="#555555" stroke-width="1.4" marker-end="url(#arrow)"/><line x1="61.5" y1="194.0" x2="390.5" y2="228.0" stroke="#555555" stroke-width="1.4" marker-end="url(#arrow)"/><line x1="61.5" y1="194.0" x2="565.0" y2="228.0" stroke="#555555" stroke-width="1.4" marker-end="url(#arrow)"/><rect x="24.0" y="24.0" width="118.0" height="34.0" fill="#eef3fb" stroke="#3b5b92" stroke-width="1.5"/><text x="83.0" y="41.0" font-family="Helvetica, Arial, sans-serif" font-size="13" fill="#15233f" text-anchor="middle" dominant-baseline="middle" font-weight="normal"><tspan x="83.0" dy="0.0">SBsql parser</tspan></text><rect x="202.0" y="24.0" width="176.0" height="34.0" fill="#eef3fb" stroke="#3b5b92" stroke-width="1.5"/><text x="290.0" y="41.0" font-family="Helvetica, Arial, sans-serif" font-size="13" fill="#15233f" text-anchor="middle" dominant-baseline="middle" font-weight="normal"><tspan x="290.0" dy="0.0">Compatibility parser</tspan></text><rect x="24.0" y="92.0" width="176.0" height="34.0" fill="#eef3fb" stroke="#3b5b92" stroke-width="1.5"/><text x="112.0" y="109.0" font-family="Helvetica, Arial, sans-serif" font-size="13" fill="#15233f" text-anchor="middle" dominant-baseline="middle" font-weight="normal"><tspan x="112.0" dy="0.0">SBLR request surface</tspan></text><rect x="24.0" y="160.0" width="75.0" height="34.0" fill="#eef3fb" stroke="#3b5b92" stroke-width="1.5"/><text x="61.5" y="177.0" font-family="Helvetica, Arial, sans-serif" font-size="13" fill="#15233f" text-anchor="middle" dominant-baseline="middle" font-weight="normal"><tspan x="61.5" dy="0.0">SBcore</tspan></text><rect x="24.0" y="228.0" width="233.0" height="34.0" fill="#eef3fb" stroke="#3b5b92" stroke-width="1.5"/><text x="140.5" y="245.0" font-family="Helvetica, Arial, sans-serif" font-size="13" fill="#15233f" text-anchor="middle" dominant-baseline="middle" font-weight="normal"><tspan x="140.5" dy="0.0">Catalog, descriptors, policy</tspan></text><rect x="317.0" y="228.0" width="147.0" height="34.0" fill="#eef3fb" stroke="#3b5b92" stroke-width="1.5"/><text x="390.5" y="245.0" font-family="Helvetica, Arial, sans-serif" font-size="13" fill="#15233f" text-anchor="middle" dominant-baseline="middle" font-weight="normal"><tspan x="390.5" dy="0.0">MGA transactions</tspan></text><rect x="524.0" y="228.0" width="82.0" height="34.0" fill="#eef3fb" stroke="#3b5b92" stroke-width="1.5"/><text x="565.0" y="245.0" font-family="Helvetica, Arial, sans-serif" font-size="13" fill="#15233f" text-anchor="middle" dominant-baseline="middle" font-weight="normal"><tspan x="565.0" dy="0.0">Storage</tspan></text></svg>
