<svg xmlns="http://www.w3.org/2000/svg" width="639" height="490" viewBox="0 0 639 490" font-family="Helvetica, Arial, sans-serif">
<defs><marker id="arrow" viewBox="0 0 10 10" refX="9" refY="5" markerWidth="8" markerHeight="8" orient="auto-start-end"><path d="M0,0 L10,5 L0,10 z" fill="#555555" stroke="#555555"/></marker></defs>
<rect x="0" y="0" width="639" height="490" fill="#ffffff"/>
<line x1="101.0" y1="58.0" x2="140.5" y2="92.0" stroke="#555555" stroke-width="1.4" marker-end="url(#arrow)"/><line x1="140.5" y1="126.0" x2="130.0" y2="160.0" stroke="#555555" stroke-width="1.4" marker-end="url(#arrow)"/><line x1="130.0" y1="194.0" x2="79.5" y2="228.0" stroke="#555555" stroke-width="1.4" marker-end="url(#arrow)"/><line x1="79.5" y1="262.0" x2="61.5" y2="296.0" stroke="#555555" stroke-width="1.4" marker-end="url(#arrow)"/><rect x="46.7" y="270.0" width="47.6" height="16" fill="#ffffff" stroke="none"/><text x="70.5" y="279.0" font-family="Helvetica, Arial, sans-serif" font-size="11" fill="#333333" text-anchor="middle" dominant-baseline="middle">commit</text><line x1="79.5" y1="262.0" x2="203.5" y2="296.0" stroke="#555555" stroke-width="1.4" marker-end="url(#arrow)"/><rect x="111.1" y="270.0" width="60.8" height="16" fill="#ffffff" stroke="none"/><text x="141.5" y="279.0" font-family="Helvetica, Arial, sans-serif" font-size="11" fill="#333333" text-anchor="middle" dominant-baseline="middle">rollback</text><line x1="61.5" y1="330.0" x2="169.5" y2="364.0" stroke="#555555" stroke-width="1.4" marker-end="url(#arrow)"/><line x1="203.5" y1="330.0" x2="495.0" y2="364.0" stroke="#555555" stroke-width="1.4" marker-end="url(#arrow)"/><line x1="169.5" y1="398.0" x2="101.0" y2="432.0" stroke="#555555" stroke-width="1.4" marker-end="url(#arrow)"/><line x1="495.0" y1="398.0" x2="101.0" y2="432.0" stroke="#555555" stroke-width="1.4" marker-end="url(#arrow)"/><rect x="24.0" y="24.0" width="154.0" height="34.0" fill="#eef3fb" stroke="#3b5b92" stroke-width="1.5"/><text x="101.0" y="41.0" font-family="Helvetica, Arial, sans-serif" font-size="13" fill="#15233f" text-anchor="middle" dominant-baseline="middle" font-weight="normal"><tspan x="101.0" dy="0.0">Begin transaction</tspan></text><rect x="24.0" y="92.0" width="233.0" height="34.0" fill="#eef3fb" stroke="#3b5b92" stroke-width="1.5"/><text x="140.5" y="109.0" font-family="Helvetica, Arial, sans-serif" font-size="13" fill="#15233f" text-anchor="middle" dominant-baseline="middle" font-weight="normal"><tspan x="140.5" dy="0.0">Read and write admitted data</tspan></text><rect x="24.0" y="160.0" width="212.0" height="34.0" fill="#eef3fb" stroke="#3b5b92" stroke-width="1.5"/><text x="130.0" y="177.0" font-family="Helvetica, Arial, sans-serif" font-size="13" fill="#15233f" text-anchor="middle" dominant-baseline="middle" font-weight="normal"><tspan x="130.0" dy="0.0">Pending transaction state</tspan></text><polygon points="79.5,228.0 135.0,245.0 79.5,262.0 24.0,245.0" fill="#eef3fb" stroke="#3b5b92" stroke-width="1.5"/><text x="79.5" y="245.0" font-family="Helvetica, Arial, sans-serif" font-size="13" fill="#15233f" text-anchor="middle" dominant-baseline="middle" font-weight="normal"><tspan x="79.5" dy="0.0">Finish how?</tspan></text><rect x="24.0" y="296.0" width="75.0" height="34.0" fill="#eef3fb" stroke="#3b5b92" stroke-width="1.5"/><text x="61.5" y="313.0" font-family="Helvetica, Arial, sans-serif" font-size="13" fill="#15233f" text-anchor="middle" dominant-baseline="middle" font-weight="normal"><tspan x="61.5" dy="0.0">Commit</tspan></text><rect x="159.0" y="296.0" width="89.0" height="34.0" fill="#eef3fb" stroke="#3b5b92" stroke-width="1.5"/><text x="203.5" y="313.0" font-family="Helvetica, Arial, sans-serif" font-size="13" fill="#15233f" text-anchor="middle" dominant-baseline="middle" font-weight="normal"><tspan x="203.5" dy="0.0">Rollback</tspan></text><rect x="24.0" y="364.0" width="291.0" height="34.0" fill="#eef3fb" stroke="#3b5b92" stroke-width="1.5"/><text x="169.5" y="381.0" font-family="Helvetica, Arial, sans-serif" font-size="13" fill="#15233f" text-anchor="middle" dominant-baseline="middle" font-weight="normal"><tspan x="169.5" dy="0.0">Committed state visible by MGA rules</tspan></text><rect x="375.0" y="364.0" width="240.0" height="34.0" fill="#eef3fb" stroke="#3b5b92" stroke-width="1.5"/><text x="495.0" y="381.0" font-family="Helvetica, Arial, sans-serif" font-size="13" fill="#15233f" text-anchor="middle" dominant-baseline="middle" font-weight="normal"><tspan x="495.0" dy="0.0">Uncommitted outcome discarded</tspan></text><rect x="24.0" y="432.0" width="154.0" height="34.0" fill="#eef3fb" stroke="#3b5b92" stroke-width="1.5"/><text x="101.0" y="449.0" font-family="Helvetica, Arial, sans-serif" font-size="13" fill="#15233f" text-anchor="middle" dominant-baseline="middle" font-weight="normal"><tspan x="101.0" dy="0.0">Cleanup when safe</tspan></text></svg>
