<svg xmlns="http://www.w3.org/2000/svg" width="763" height="410" viewBox="0 0 763 410" font-family="Helvetica, Arial, sans-serif">
<defs><marker id="arrow" viewBox="0 0 10 10" refX="9" refY="5" markerWidth="8" markerHeight="8" orient="auto-start-end"><path d="M0,0 L10,5 L0,10 z" fill="#555555" stroke="#555555"/></marker></defs>
<rect x="0" y="0" width="763" height="410" fill="#ffffff"/>
<line x1="64.0" y1="58.0" x2="64.0" y2="386.0" stroke="#aaaaaa" stroke-width="1" stroke-dasharray="4,4"/><line x1="184.0" y1="58.0" x2="184.0" y2="386.0" stroke="#aaaaaa" stroke-width="1" stroke-dasharray="4,4"/><line x1="304.0" y1="58.0" x2="304.0" y2="386.0" stroke="#aaaaaa" stroke-width="1" stroke-dasharray="4,4"/><line x1="425.2" y1="58.0" x2="425.2" y2="386.0" stroke="#aaaaaa" stroke-width="1" stroke-dasharray="4,4"/><line x1="562.0" y1="58.0" x2="562.0" y2="386.0" stroke="#aaaaaa" stroke-width="1" stroke-dasharray="4,4"/><line x1="698.8" y1="58.0" x2="698.8" y2="386.0" stroke="#aaaaaa" stroke-width="1" stroke-dasharray="4,4"/><rect x="24.0" y="24.0" width="80.0" height="34" rx="6" fill="#eef3fb" stroke="#3b5b92" stroke-width="1.5"/><text x="64.0" y="41.0" font-family="Helvetica, Arial, sans-serif" font-size="13" fill="#15233f" text-anchor="middle" dominant-baseline="middle" font-weight="normal"><tspan x="64.0" dy="0.0">User</tspan></text><rect x="144.0" y="24.0" width="80.0" height="34" rx="6" fill="#eef3fb" stroke="#3b5b92" stroke-width="1.5"/><text x="184.0" y="41.0" font-family="Helvetica, Arial, sans-serif" font-size="13" fill="#15233f" text-anchor="middle" dominant-baseline="middle" font-weight="normal"><tspan x="184.0" dy="0.0">Parser</tspan></text><rect x="264.0" y="24.0" width="80.0" height="34" rx="6" fill="#eef3fb" stroke="#3b5b92" stroke-width="1.5"/><text x="304.0" y="41.0" font-family="Helvetica, Arial, sans-serif" font-size="13" fill="#15233f" text-anchor="middle" dominant-baseline="middle" font-weight="normal"><tspan x="304.0" dy="0.0">Engine</tspan></text><rect x="384.0" y="24.0" width="82.4" height="34" rx="6" fill="#eef3fb" stroke="#3b5b92" stroke-width="1.5"/><text x="425.2" y="41.0" font-family="Helvetica, Arial, sans-serif" font-size="13" fill="#15233f" text-anchor="middle" dominant-baseline="middle" font-weight="normal"><tspan x="425.2" dy="0.0">Catalog</tspan></text><rect x="506.4" y="24.0" width="111.2" height="34" rx="6" fill="#eef3fb" stroke="#3b5b92" stroke-width="1.5"/><text x="562.0" y="41.0" font-family="Helvetica, Arial, sans-serif" font-size="13" fill="#15233f" text-anchor="middle" dominant-baseline="middle" font-weight="normal"><tspan x="562.0" dy="0.0">Transaction</tspan></text><rect x="657.6" y="24.0" width="82.4" height="34" rx="6" fill="#eef3fb" stroke="#3b5b92" stroke-width="1.5"/><text x="698.8" y="41.0" font-family="Helvetica, Arial, sans-serif" font-size="13" fill="#15233f" text-anchor="middle" dominant-baseline="middle" font-weight="normal"><tspan x="698.8" dy="0.0">Storage</tspan></text><line x1="64.0" y1="88.0" x2="184.0" y2="88.0" stroke="#555555" stroke-width="1.3" marker-end="url(#arrow)"/><text x="124.0" y="82.0" font-family="Helvetica, Arial, sans-serif" font-size="11" fill="#333333" text-anchor="middle">Command or protocol request</text><path d="M184.0,126.0 h40 v18 h-40" fill="none" stroke="#555555" stroke-width="1.3" marker-end="url(#arrow)"/><text x="230.0" y="122.0" font-family="Helvetica, Arial, sans-serif" font-size="11" fill="#333333" dominant-baseline="middle">Parse, bind visible names, apply parser rules</text><line x1="184.0" y1="172.0" x2="304.0" y2="172.0" stroke="#555555" stroke-width="1.3" marker-end="url(#arrow)"/><text x="244.0" y="166.0" font-family="Helvetica, Arial, sans-serif" font-size="11" fill="#333333" text-anchor="middle">Submit bound SBLR request</text><line x1="304.0" y1="210.0" x2="425.2" y2="210.0" stroke="#555555" stroke-width="1.3" marker-end="url(#arrow)"/><text x="364.6" y="204.0" font-family="Helvetica, Arial, sans-serif" font-size="11" fill="#333333" text-anchor="middle">Resolve UUID-backed object descriptors</text><line x1="304.0" y1="248.0" x2="562.0" y2="248.0" stroke="#555555" stroke-width="1.3" marker-end="url(#arrow)"/><text x="433.0" y="242.0" font-family="Helvetica, Arial, sans-serif" font-size="11" fill="#333333" text-anchor="middle">Check visibility and transaction state</text><line x1="304.0" y1="286.0" x2="698.8" y2="286.0" stroke="#555555" stroke-width="1.3" marker-end="url(#arrow)"/><text x="501.4" y="280.0" font-family="Helvetica, Arial, sans-serif" font-size="11" fill="#333333" text-anchor="middle">Execute admitted read or write</text><line x1="304.0" y1="324.0" x2="184.0" y2="324.0" stroke="#555555" stroke-width="1.3" stroke-dasharray="5,4" marker-end="url(#arrow)"/><text x="244.0" y="318.0" font-family="Helvetica, Arial, sans-serif" font-size="11" fill="#333333" text-anchor="middle">Result or message vector</text><line x1="184.0" y1="362.0" x2="64.0" y2="362.0" stroke="#555555" stroke-width="1.3" stroke-dasharray="5,4" marker-end="url(#arrow)"/><text x="124.0" y="356.0" font-family="Helvetica, Arial, sans-serif" font-size="11" fill="#333333" text-anchor="middle">Client-shaped response</text></svg>
