<svg xmlns="http://www.w3.org/2000/svg" width="806" height="286" viewBox="0 0 806 286" font-family="Helvetica, Arial, sans-serif">
<defs><marker id="arrow" viewBox="0 0 10 10" refX="9" refY="5" markerWidth="8" markerHeight="8" orient="auto-start-end"><path d="M0,0 L10,5 L0,10 z" fill="#555555" stroke="#555555"/></marker></defs>
<rect x="0" y="0" width="806" height="286" fill="#ffffff"/>
<line x1="113.0" y1="41.0" x2="173.0" y2="41.0" stroke="#555555" stroke-width="1.4" marker-end="url(#arrow)"/><line x1="248.0" y1="41.0" x2="308.0" y2="41.0" stroke="#555555" stroke-width="1.4" marker-end="url(#arrow)"/><line x1="433.0" y1="41.0" x2="493.0" y2="41.0" stroke="#555555" stroke-width="1.4" marker-end="url(#arrow)"/><line x1="568.0" y1="41.0" x2="631.5" y2="41.0" stroke="#555555" stroke-width="1.4" marker-end="url(#arrow)"/><line x1="568.0" y1="41.0" x2="649.5" y2="109.0" stroke="#555555" stroke-width="1.4" marker-end="url(#arrow)"/><line x1="568.0" y1="41.0" x2="635.0" y2="177.0" stroke="#555555" stroke-width="1.4" marker-end="url(#arrow)"/><line x1="568.0" y1="41.0" x2="628.0" y2="245.0" stroke="#555555" stroke-width="1.4" marker-end="url(#arrow)"/><rect x="24.0" y="24.0" width="89.0" height="34.0" fill="#eef3fb" stroke="#3b5b92" stroke-width="1.5"/><text x="68.5" y="41.0" font-family="Helvetica, Arial, sans-serif" font-size="13" fill="#15233f" text-anchor="middle" dominant-baseline="middle" font-weight="normal"><tspan x="68.5" dy="0.0">SQL text</tspan></text><rect x="173.0" y="24.0" width="75.0" height="34.0" fill="#eef3fb" stroke="#3b5b92" stroke-width="1.5"/><text x="210.5" y="41.0" font-family="Helvetica, Arial, sans-serif" font-size="13" fill="#15233f" text-anchor="middle" dominant-baseline="middle" font-weight="normal"><tspan x="210.5" dy="0.0">Parser</tspan></text><rect x="308.0" y="24.0" width="125.0" height="34.0" fill="#eef3fb" stroke="#3b5b92" stroke-width="1.5"/><text x="370.5" y="41.0" font-family="Helvetica, Arial, sans-serif" font-size="13" fill="#15233f" text-anchor="middle" dominant-baseline="middle" font-weight="normal"><tspan x="370.5" dy="0.0">Bound request</tspan></text><rect x="493.0" y="24.0" width="75.0" height="34.0" fill="#eef3fb" stroke="#3b5b92" stroke-width="1.5"/><text x="530.5" y="41.0" font-family="Helvetica, Arial, sans-serif" font-size="13" fill="#15233f" text-anchor="middle" dominant-baseline="middle" font-weight="normal"><tspan x="530.5" dy="0.0">Engine</tspan></text><rect x="631.5" y="24.0" width="147.0" height="34.0" fill="#eef3fb" stroke="#3b5b92" stroke-width="1.5"/><text x="705.0" y="41.0" font-family="Helvetica, Arial, sans-serif" font-size="13" fill="#15233f" text-anchor="middle" dominant-baseline="middle" font-weight="normal"><tspan x="705.0" dy="0.0">Catalog metadata</tspan></text><rect x="649.5" y="92.0" width="111.0" height="34.0" fill="#eef3fb" stroke="#3b5b92" stroke-width="1.5"/><text x="705.0" y="109.0" font-family="Helvetica, Arial, sans-serif" font-size="13" fill="#15233f" text-anchor="middle" dominant-baseline="middle" font-weight="normal"><tspan x="705.0" dy="0.0">Stored data</tspan></text><rect x="635.0" y="160.0" width="140.0" height="34.0" fill="#eef3fb" stroke="#3b5b92" stroke-width="1.5"/><text x="705.0" y="177.0" font-family="Helvetica, Arial, sans-serif" font-size="13" fill="#15233f" text-anchor="middle" dominant-baseline="middle" font-weight="normal"><tspan x="705.0" dy="0.0">Security policy</tspan></text><rect x="628.0" y="228.0" width="154.0" height="34.0" fill="#eef3fb" stroke="#3b5b92" stroke-width="1.5"/><text x="705.0" y="245.0" font-family="Helvetica, Arial, sans-serif" font-size="13" fill="#15233f" text-anchor="middle" dominant-baseline="middle" font-weight="normal"><tspan x="705.0" dy="0.0">Transaction state</tspan></text></svg>
