<svg xmlns="http://www.w3.org/2000/svg" width="881" height="354" viewBox="0 0 881 354" font-family="Helvetica, Arial, sans-serif">
<defs><marker id="arrow" viewBox="0 0 10 10" refX="9" refY="5" markerWidth="8" markerHeight="8" orient="auto-start-end"><path d="M0,0 L10,5 L0,10 z" fill="#555555" stroke="#555555"/></marker></defs>
<rect x="0" y="0" width="881" height="354" fill="#ffffff"/>
<line x1="243.0" y1="41.0" x2="303.0" y2="41.0" stroke="#555555" stroke-width="1.4" marker-end="url(#arrow)"/><line x1="450.0" y1="41.0" x2="510.0" y2="41.0" stroke="#555555" stroke-width="1.4" marker-end="url(#arrow)"/><line x1="585.0" y1="41.0" x2="692.0" y2="41.0" stroke="#555555" stroke-width="1.4" marker-end="url(#arrow)"/><line x1="585.0" y1="41.0" x2="645.0" y2="109.0" stroke="#555555" stroke-width="1.4" marker-end="url(#arrow)"/><line x1="585.0" y1="41.0" x2="710.0" y2="177.0" stroke="#555555" stroke-width="1.4" marker-end="url(#arrow)"/><line x1="585.0" y1="41.0" x2="667.0" y2="245.0" stroke="#555555" stroke-width="1.4" marker-end="url(#arrow)"/><line x1="585.0" y1="41.0" x2="681.0" y2="313.0" stroke="#555555" stroke-width="1.4" marker-end="url(#arrow)"/><rect x="24.0" y="24.0" width="219.0" height="34.0" fill="#eef3fb" stroke="#3b5b92" stroke-width="1.5"/><text x="133.5" y="41.0" font-family="Helvetica, Arial, sans-serif" font-size="13" fill="#15233f" text-anchor="middle" dominant-baseline="middle" font-weight="normal"><tspan x="133.5" dy="0.0">Selected operating surface</tspan></text><rect x="303.0" y="24.0" width="147.0" height="34.0" fill="#eef3fb" stroke="#3b5b92" stroke-width="1.5"/><text x="376.5" y="41.0" font-family="Helvetica, Arial, sans-serif" font-size="13" fill="#15233f" text-anchor="middle" dominant-baseline="middle" font-weight="normal"><tspan x="376.5" dy="0.0">Admitted request</tspan></text><rect x="510.0" y="24.0" width="75.0" height="34.0" fill="#eef3fb" stroke="#3b5b92" stroke-width="1.5"/><text x="547.5" y="41.0" font-family="Helvetica, Arial, sans-serif" font-size="13" fill="#15233f" text-anchor="middle" dominant-baseline="middle" font-weight="normal"><tspan x="547.5" dy="0.0">SBcore</tspan></text><rect x="692.0" y="24.0" width="118.0" height="34.0" fill="#eef3fb" stroke="#3b5b92" stroke-width="1.5"/><text x="751.0" y="41.0" font-family="Helvetica, Arial, sans-serif" font-size="13" fill="#15233f" text-anchor="middle" dominant-baseline="middle" font-weight="normal"><tspan x="751.0" dy="0.0">UUID catalog</tspan></text><rect x="645.0" y="92.0" width="212.0" height="34.0" fill="#eef3fb" stroke="#3b5b92" stroke-width="1.5"/><text x="751.0" y="109.0" font-family="Helvetica, Arial, sans-serif" font-size="13" fill="#15233f" text-anchor="middle" dominant-baseline="middle" font-weight="normal"><tspan x="751.0" dy="0.0">MGA transaction authority</tspan></text><rect x="710.0" y="160.0" width="82.0" height="34.0" fill="#eef3fb" stroke="#3b5b92" stroke-width="1.5"/><text x="751.0" y="177.0" font-family="Helvetica, Arial, sans-serif" font-size="13" fill="#15233f" text-anchor="middle" dominant-baseline="middle" font-weight="normal"><tspan x="751.0" dy="0.0">Storage</tspan></text><rect x="667.0" y="228.0" width="168.0" height="34.0" fill="#eef3fb" stroke="#3b5b92" stroke-width="1.5"/><text x="751.0" y="245.0" font-family="Helvetica, Arial, sans-serif" font-size="13" fill="#15233f" text-anchor="middle" dominant-baseline="middle" font-weight="normal"><tspan x="751.0" dy="0.0">Security and policy</tspan></text><rect x="681.0" y="296.0" width="140.0" height="34.0" fill="#eef3fb" stroke="#3b5b92" stroke-width="1.5"/><text x="751.0" y="313.0" font-family="Helvetica, Arial, sans-serif" font-size="13" fill="#15233f" text-anchor="middle" dominant-baseline="middle" font-weight="normal"><tspan x="751.0" dy="0.0">Message vectors</tspan></text></svg>
