<svg xmlns="http://www.w3.org/2000/svg" width="870" height="422" viewBox="0 0 870 422" font-family="Helvetica, Arial, sans-serif">
<defs><marker id="arrow" viewBox="0 0 10 10" refX="9" refY="5" markerWidth="8" markerHeight="8" orient="auto-start-end"><path d="M0,0 L10,5 L0,10 z" fill="#555555" stroke="#555555"/></marker></defs>
<rect x="0" y="0" width="870" height="422" fill="#ffffff"/>
<line x1="187.5" y1="58.0" x2="209.0" y2="92.0" stroke="#555555" stroke-width="1.4" marker-end="url(#arrow)"/><line x1="209.0" y1="126.0" x2="553.0" y2="160.0" stroke="#555555" stroke-width="1.4" marker-end="url(#arrow)"/><rect x="367.1" y="134.0" width="27.8" height="16" fill="#ffffff" stroke="none"/><text x="381.0" y="143.0" font-family="Helvetica, Arial, sans-serif" font-size="11" fill="#333333" text-anchor="middle" dominant-baseline="middle">yes</text><line x1="209.0" y1="126.0" x2="223.5" y2="160.0" stroke="#555555" stroke-width="1.4" marker-end="url(#arrow)"/><rect x="205.7" y="134.0" width="21.2" height="16" fill="#ffffff" stroke="none"/><text x="216.2" y="143.0" font-family="Helvetica, Arial, sans-serif" font-size="11" fill="#333333" text-anchor="middle" dominant-baseline="middle">no</text><line x1="223.5" y1="194.0" x2="635.0" y2="228.0" stroke="#555555" stroke-width="1.4" marker-end="url(#arrow)"/><rect x="415.4" y="202.0" width="27.8" height="16" fill="#ffffff" stroke="none"/><text x="429.2" y="211.0" font-family="Helvetica, Arial, sans-serif" font-size="11" fill="#333333" text-anchor="middle" dominant-baseline="middle">yes</text><line x1="223.5" y1="194.0" x2="252.0" y2="228.0" stroke="#555555" stroke-width="1.4" marker-end="url(#arrow)"/><rect x="227.2" y="202.0" width="21.2" height="16" fill="#ffffff" stroke="none"/><text x="237.8" y="211.0" font-family="Helvetica, Arial, sans-serif" font-size="11" fill="#333333" text-anchor="middle" dominant-baseline="middle">no</text><line x1="252.0" y1="262.0" x2="769.0" y2="296.0" stroke="#555555" stroke-width="1.4" marker-end="url(#arrow)"/><rect x="496.6" y="270.0" width="27.8" height="16" fill="#ffffff" stroke="none"/><text x="510.5" y="279.0" font-family="Helvetica, Arial, sans-serif" font-size="11" fill="#333333" text-anchor="middle" dominant-baseline="middle">yes</text><line x1="252.0" y1="262.0" x2="328.0" y2="296.0" stroke="#555555" stroke-width="1.4" marker-end="url(#arrow)"/><rect x="279.4" y="270.0" width="21.2" height="16" fill="#ffffff" stroke="none"/><text x="290.0" y="279.0" font-family="Helvetica, Arial, sans-serif" font-size="11" fill="#333333" text-anchor="middle" dominant-baseline="middle">no</text><line x1="328.0" y1="330.0" x2="126.0" y2="364.0" stroke="#555555" stroke-width="1.4" marker-end="url(#arrow)"/><rect x="213.1" y="338.0" width="27.8" height="16" fill="#ffffff" stroke="none"/><text x="227.0" y="347.0" font-family="Helvetica, Arial, sans-serif" font-size="11" fill="#333333" text-anchor="middle" dominant-baseline="middle">yes</text><line x1="328.0" y1="330.0" x2="466.0" y2="364.0" stroke="#555555" stroke-width="1.4" marker-end="url(#arrow)"/><rect x="386.4" y="338.0" width="21.2" height="16" fill="#ffffff" stroke="none"/><text x="397.0" y="347.0" font-family="Helvetica, Arial, sans-serif" font-size="11" fill="#333333" text-anchor="middle" dominant-baseline="middle">no</text><rect x="24.0" y="24.0" width="327.0" height="34.0" fill="#eef3fb" stroke="#3b5b92" stroke-width="1.5"/><text x="187.5" y="41.0" font-family="Helvetica, Arial, sans-serif" font-size="13" fill="#15233f" text-anchor="middle" dominant-baseline="middle" font-weight="normal"><tspan x="187.5" dy="0.0">What boundary should the application use?</tspan></text><polygon points="209.0,92.0 394.0,109.0 209.0,126.0 24.0,109.0" fill="#eef3fb" stroke="#3b5b92" stroke-width="1.5"/><text x="209.0" y="109.0" font-family="Helvetica, Arial, sans-serif" font-size="13" fill="#15233f" text-anchor="middle" dominant-baseline="middle" font-weight="normal"><tspan x="209.0" dy="0.0">Can the application host the engine in-process?</tspan></text><polygon points="223.5,160.0 423.0,177.0 223.5,194.0 24.0,177.0" fill="#eef3fb" stroke="#3b5b92" stroke-width="1.5"/><text x="223.5" y="177.0" font-family="Helvetica, Arial, sans-serif" font-size="13" fill="#15233f" text-anchor="middle" dominant-baseline="middle" font-weight="normal"><tspan x="223.5" dy="0.0">Do independent local clients need a shared process?</tspan></text><polygon points="252.0,228.0 480.0,245.0 252.0,262.0 24.0,245.0" fill="#eef3fb" stroke="#3b5b92" stroke-width="1.5"/><text x="252.0" y="245.0" font-family="Helvetica, Arial, sans-serif" font-size="13" fill="#15233f" text-anchor="middle" dominant-baseline="middle" font-weight="normal"><tspan x="252.0" dy="0.0">Do clients need network-facing listener and parser routing?</tspan></text><polygon points="328.0,296.0 632.0,313.0 328.0,330.0 24.0,313.0" fill="#eef3fb" stroke="#3b5b92" stroke-width="1.5"/><text x="328.0" y="313.0" font-family="Helvetica, Arial, sans-serif" font-size="13" fill="#15233f" text-anchor="middle" dominant-baseline="middle" font-weight="normal"><tspan x="328.0" dy="0.0">Do several installations need shared identity or manager-front-door conventions?</tspan></text><rect x="483.0" y="160.0" width="140.0" height="34.0" fill="#eef3fb" stroke="#3b5b92" stroke-width="1.5"/><text x="553.0" y="177.0" font-family="Helvetica, Arial, sans-serif" font-size="13" fill="#15233f" text-anchor="middle" dominant-baseline="middle" font-weight="normal"><tspan x="553.0" dy="0.0">Embedded engine</tspan></text><rect x="540.0" y="228.0" width="190.0" height="34.0" fill="#eef3fb" stroke="#3b5b92" stroke-width="1.5"/><text x="635.0" y="245.0" font-family="Helvetica, Arial, sans-serif" font-size="13" fill="#15233f" text-anchor="middle" dominant-baseline="middle" font-weight="normal"><tspan x="635.0" dy="0.0">Single-node IPC server</tspan></text><rect x="692.0" y="296.0" width="154.0" height="34.0" fill="#eef3fb" stroke="#3b5b92" stroke-width="1.5"/><text x="769.0" y="313.0" font-family="Helvetica, Arial, sans-serif" font-size="13" fill="#15233f" text-anchor="middle" dominant-baseline="middle" font-weight="normal"><tspan x="769.0" dy="0.0">Standalone server</tspan></text><rect x="24.0" y="364.0" width="204.0" height="34.0" fill="#eef3fb" stroke="#3b5b92" stroke-width="1.5"/><text x="126.0" y="381.0" font-family="Helvetica, Arial, sans-serif" font-size="13" fill="#15233f" text-anchor="middle" dominant-baseline="middle" font-weight="normal"><tspan x="126.0" dy="0.0">Managed group deployment</tspan></text><rect x="288.0" y="364.0" width="356.0" height="34.0" fill="#eef3fb" stroke="#3b5b92" stroke-width="1.5"/><text x="466.0" y="381.0" font-family="Helvetica, Arial, sans-serif" font-size="13" fill="#15233f" text-anchor="middle" dominant-baseline="middle" font-weight="normal"><tspan x="466.0" dy="0.0">Recheck requirements and current build output</tspan></text></svg>
