<svg xmlns="http://www.w3.org/2000/svg" width="836" height="448" viewBox="0 0 836 448" font-family="Helvetica, Arial, sans-serif">
<defs><marker id="arrow" viewBox="0 0 10 10" refX="9" refY="5" markerWidth="8" markerHeight="8" orient="auto-start-end"><path d="M0,0 L10,5 L0,10 z" fill="#555555" stroke="#555555"/></marker></defs>
<rect x="0" y="0" width="836" height="448" fill="#ffffff"/>
<line x1="64.0" y1="58.0" x2="64.0" y2="424.0" stroke="#aaaaaa" stroke-width="1" stroke-dasharray="4,4"/><line x1="184.0" y1="58.0" x2="184.0" y2="424.0" stroke="#aaaaaa" stroke-width="1" stroke-dasharray="4,4"/><line x1="395.2" y1="58.0" x2="395.2" y2="424.0" stroke="#aaaaaa" stroke-width="1" stroke-dasharray="4,4"/><line x1="629.2" y1="58.0" x2="629.2" y2="424.0" stroke="#aaaaaa" stroke-width="1" stroke-dasharray="4,4"/><line x1="772.0" y1="58.0" x2="772.0" y2="424.0" stroke="#aaaaaa" stroke-width="1" stroke-dasharray="4,4"/><rect x="24.0" y="24.0" width="80.0" height="34" rx="6" fill="#eef3fb" stroke="#3b5b92" stroke-width="1.5"/><text x="64.0" y="41.0" font-family="Helvetica, Arial, sans-serif" font-size="13" fill="#15233f" text-anchor="middle" dominant-baseline="middle" font-weight="normal"><tspan x="64.0" dy="0.0">User</tspan></text><rect x="144.0" y="24.0" width="80.0" height="34" rx="6" fill="#eef3fb" stroke="#3b5b92" stroke-width="1.5"/><text x="184.0" y="41.0" font-family="Helvetica, Arial, sans-serif" font-size="13" fill="#15233f" text-anchor="middle" dominant-baseline="middle" font-weight="normal"><tspan x="184.0" dy="0.0">SBmgr</tspan></text><rect x="264.0" y="24.0" width="262.4" height="34" rx="6" fill="#eef3fb" stroke="#3b5b92" stroke-width="1.5"/><text x="395.2" y="41.0" font-family="Helvetica, Arial, sans-serif" font-size="13" fill="#15233f" text-anchor="middle" dominant-baseline="middle" font-weight="normal"><tspan x="395.2" dy="0.0">Shared identity or policy source</tspan></text><rect x="566.4" y="24.0" width="125.6" height="34" rx="6" fill="#eef3fb" stroke="#3b5b92" stroke-width="1.5"/><text x="629.2" y="41.0" font-family="Helvetica, Arial, sans-serif" font-size="13" fill="#15233f" text-anchor="middle" dominant-baseline="middle" font-weight="normal"><tspan x="629.2" dy="0.0">Local service</tspan></text><rect x="732.0" y="24.0" width="80.0" height="34" rx="6" fill="#eef3fb" stroke="#3b5b92" stroke-width="1.5"/><text x="772.0" y="41.0" font-family="Helvetica, Arial, sans-serif" font-size="13" fill="#15233f" text-anchor="middle" dominant-baseline="middle" font-weight="normal"><tspan x="772.0" dy="0.0">SBcore</tspan></text><line x1="64.0" y1="88.0" x2="184.0" y2="88.0" stroke="#555555" stroke-width="1.3" marker-end="url(#arrow)"/><text x="124.0" y="82.0" font-family="Helvetica, Arial, sans-serif" font-size="11" fill="#333333" text-anchor="middle">connect to managed entry point</text><line x1="184.0" y1="126.0" x2="395.2" y2="126.0" stroke="#555555" stroke-width="1.3" marker-end="url(#arrow)"/><text x="289.6" y="120.0" font-family="Helvetica, Arial, sans-serif" font-size="11" fill="#333333" text-anchor="middle">validate identity and policy context</text><line x1="395.2" y1="164.0" x2="184.0" y2="164.0" stroke="#555555" stroke-width="1.3" stroke-dasharray="5,4" marker-end="url(#arrow)"/><text x="289.6" y="158.0" font-family="Helvetica, Arial, sans-serif" font-size="11" fill="#333333" text-anchor="middle">admitted or refused</text><line x1="184.0" y1="202.0" x2="629.2" y2="202.0" stroke="#555555" stroke-width="1.3" marker-end="url(#arrow)"/><text x="406.6" y="196.0" font-family="Helvetica, Arial, sans-serif" font-size="11" fill="#333333" text-anchor="middle">open local route</text><line x1="629.2" y1="240.0" x2="772.0" y2="240.0" stroke="#555555" stroke-width="1.3" marker-end="url(#arrow)"/><text x="700.6" y="234.0" font-family="Helvetica, Arial, sans-serif" font-size="11" fill="#333333" text-anchor="middle">create local session</text><path d="M772.0,278.0 h40 v18 h-40" fill="none" stroke="#555555" stroke-width="1.3" marker-end="url(#arrow)"/><text x="818.0" y="274.0" font-family="Helvetica, Arial, sans-serif" font-size="11" fill="#333333" dominant-baseline="middle">materialize authorization</text><line x1="772.0" y1="324.0" x2="629.2" y2="324.0" stroke="#555555" stroke-width="1.3" stroke-dasharray="5,4" marker-end="url(#arrow)"/><text x="700.6" y="318.0" font-family="Helvetica, Arial, sans-serif" font-size="11" fill="#333333" text-anchor="middle">session admitted or refused</text><line x1="629.2" y1="362.0" x2="184.0" y2="362.0" stroke="#555555" stroke-width="1.3" stroke-dasharray="5,4" marker-end="url(#arrow)"/><text x="406.6" y="356.0" font-family="Helvetica, Arial, sans-serif" font-size="11" fill="#333333" text-anchor="middle">local session result</text><line x1="184.0" y1="400.0" x2="64.0" y2="400.0" stroke="#555555" stroke-width="1.3" stroke-dasharray="5,4" marker-end="url(#arrow)"/><text x="124.0" y="394.0" font-family="Helvetica, Arial, sans-serif" font-size="11" fill="#333333" text-anchor="middle">connected or diagnostic</text></svg>
