<svg xmlns="http://www.w3.org/2000/svg" width="560" height="354" viewBox="0 0 560 354" font-family="Helvetica, Arial, sans-serif">
<defs><marker id="arrow" viewBox="0 0 10 10" refX="9" refY="5" markerWidth="8" markerHeight="8" orient="auto-start-end"><path d="M0,0 L10,5 L0,10 z" fill="#555555" stroke="#555555"/></marker></defs>
<rect x="0" y="0" width="560" height="354" fill="#ffffff"/>
<line x1="155.0" y1="58.0" x2="122.5" y2="92.0" stroke="#555555" stroke-width="1.4" marker-end="url(#arrow)"/><line x1="155.0" y1="58.0" x2="379.5" y2="92.0" stroke="#555555" stroke-width="1.4" marker-end="url(#arrow)"/><line x1="441.0" y1="58.0" x2="122.5" y2="92.0" stroke="#555555" stroke-width="1.4" marker-end="url(#arrow)"/><line x1="441.0" y1="58.0" x2="379.5" y2="92.0" stroke="#555555" stroke-width="1.4" marker-end="url(#arrow)"/><line x1="122.5" y1="126.0" x2="137.0" y2="160.0" stroke="#555555" stroke-width="1.4" marker-end="url(#arrow)"/><line x1="379.5" y1="126.0" x2="423.0" y2="160.0" stroke="#555555" stroke-width="1.4" marker-end="url(#arrow)"/><line x1="137.0" y1="194.0" x2="68.5" y2="228.0" stroke="#555555" stroke-width="1.4" marker-end="url(#arrow)"/><line x1="423.0" y1="194.0" x2="217.5" y2="228.0" stroke="#555555" stroke-width="1.4" marker-end="url(#arrow)"/><line x1="68.5" y1="262.0" x2="83.0" y2="296.0" stroke="#555555" stroke-width="1.4" marker-end="url(#arrow)"/><line x1="217.5" y1="262.0" x2="261.0" y2="296.0" stroke="#555555" stroke-width="1.4" marker-end="url(#arrow)"/><rect x="24.0" y="24.0" width="262.0" height="34.0" fill="#eef3fb" stroke="#3b5b92" stroke-width="1.5"/><text x="155.0" y="41.0" font-family="Helvetica, Arial, sans-serif" font-size="13" fill="#15233f" text-anchor="middle" dominant-baseline="middle" font-weight="normal"><tspan x="155.0" dy="0.0">Shared identity or policy source</tspan></text><rect x="346.0" y="24.0" width="190.0" height="34.0" fill="#eef3fb" stroke="#3b5b92" stroke-width="1.5"/><text x="441.0" y="41.0" font-family="Helvetica, Arial, sans-serif" font-size="13" fill="#15233f" text-anchor="middle" dominant-baseline="middle" font-weight="normal"><tspan x="441.0" dy="0.0">Operator configuration</tspan></text><rect x="24.0" y="92.0" width="197.0" height="34.0" fill="#eef3fb" stroke="#3b5b92" stroke-width="1.5"/><text x="122.5" y="109.0" font-family="Helvetica, Arial, sans-serif" font-size="13" fill="#15233f" text-anchor="middle" dominant-baseline="middle" font-weight="normal"><tspan x="122.5" dy="0.0">SBmgr on installation A</tspan></text><rect x="281.0" y="92.0" width="197.0" height="34.0" fill="#eef3fb" stroke="#3b5b92" stroke-width="1.5"/><text x="379.5" y="109.0" font-family="Helvetica, Arial, sans-serif" font-size="13" fill="#15233f" text-anchor="middle" dominant-baseline="middle" font-weight="normal"><tspan x="379.5" dy="0.0">SBmgr on installation B</tspan></text><rect x="24.0" y="160.0" width="226.0" height="34.0" fill="#eef3fb" stroke="#3b5b92" stroke-width="1.5"/><text x="137.0" y="177.0" font-family="Helvetica, Arial, sans-serif" font-size="13" fill="#15233f" text-anchor="middle" dominant-baseline="middle" font-weight="normal"><tspan x="137.0" dy="0.0">Local ScratchBird service A</tspan></text><rect x="310.0" y="160.0" width="226.0" height="34.0" fill="#eef3fb" stroke="#3b5b92" stroke-width="1.5"/><text x="423.0" y="177.0" font-family="Helvetica, Arial, sans-serif" font-size="13" fill="#15233f" text-anchor="middle" dominant-baseline="middle" font-weight="normal"><tspan x="423.0" dy="0.0">Local ScratchBird service B</tspan></text><rect x="24.0" y="228.0" width="89.0" height="34.0" fill="#eef3fb" stroke="#3b5b92" stroke-width="1.5"/><text x="68.5" y="245.0" font-family="Helvetica, Arial, sans-serif" font-size="13" fill="#15233f" text-anchor="middle" dominant-baseline="middle" font-weight="normal"><tspan x="68.5" dy="0.0">SBcore A</tspan></text><rect x="173.0" y="228.0" width="89.0" height="34.0" fill="#eef3fb" stroke="#3b5b92" stroke-width="1.5"/><text x="217.5" y="245.0" font-family="Helvetica, Arial, sans-serif" font-size="13" fill="#15233f" text-anchor="middle" dominant-baseline="middle" font-weight="normal"><tspan x="217.5" dy="0.0">SBcore B</tspan></text><rect x="24.0" y="296.0" width="118.0" height="34.0" fill="#eef3fb" stroke="#3b5b92" stroke-width="1.5"/><text x="83.0" y="313.0" font-family="Helvetica, Arial, sans-serif" font-size="13" fill="#15233f" text-anchor="middle" dominant-baseline="middle" font-weight="normal"><tspan x="83.0" dy="0.0">(Database A)</tspan></text><rect x="202.0" y="296.0" width="118.0" height="34.0" fill="#eef3fb" stroke="#3b5b92" stroke-width="1.5"/><text x="261.0" y="313.0" font-family="Helvetica, Arial, sans-serif" font-size="13" fill="#15233f" text-anchor="middle" dominant-baseline="middle" font-weight="normal"><tspan x="261.0" dy="0.0">(Database B)</tspan></text></svg>
