<svg xmlns="http://www.w3.org/2000/svg" width="945" height="218" viewBox="0 0 945 218" font-family="Helvetica, Arial, sans-serif">
<defs><marker id="arrow" viewBox="0 0 10 10" refX="9" refY="5" markerWidth="8" markerHeight="8" orient="auto-start-end"><path d="M0,0 L10,5 L0,10 z" fill="#555555" stroke="#555555"/></marker></defs>
<rect x="0" y="0" width="945" height="218" fill="#ffffff"/>
<line x1="163.5" y1="41.0" x2="231.0" y2="41.0" stroke="#555555" stroke-width="1.4" marker-end="url(#arrow)"/><line x1="163.5" y1="109.0" x2="231.0" y2="41.0" stroke="#555555" stroke-width="1.4" marker-end="url(#arrow)"/><line x1="171.0" y1="177.0" x2="231.0" y2="41.0" stroke="#555555" stroke-width="1.4" marker-end="url(#arrow)"/><line x1="392.0" y1="41.0" x2="452.0" y2="41.0" stroke="#555555" stroke-width="1.4" marker-end="url(#arrow)"/><line x1="522.0" y1="41.0" x2="582.0" y2="41.0" stroke="#555555" stroke-width="1.4" marker-end="url(#arrow)"/><line x1="657.0" y1="41.0" x2="745.5" y2="41.0" stroke="#555555" stroke-width="1.4" marker-end="url(#arrow)"/><line x1="522.0" y1="41.0" x2="717.0" y2="109.0" stroke="#555555" stroke-width="1.4" marker-end="url(#arrow)"/><line x1="657.0" y1="41.0" x2="717.0" y2="109.0" stroke="#555555" stroke-width="1.4" marker-end="url(#arrow)"/><rect x="31.5" y="24.0" width="132.0" height="34.0" fill="#eef3fb" stroke="#3b5b92" stroke-width="1.5"/><text x="97.5" y="41.0" font-family="Helvetica, Arial, sans-serif" font-size="13" fill="#15233f" text-anchor="middle" dominant-baseline="middle" font-weight="normal"><tspan x="97.5" dy="0.0">Local client A</tspan></text><rect x="31.5" y="92.0" width="132.0" height="34.0" fill="#eef3fb" stroke="#3b5b92" stroke-width="1.5"/><text x="97.5" y="109.0" font-family="Helvetica, Arial, sans-serif" font-size="13" fill="#15233f" text-anchor="middle" dominant-baseline="middle" font-weight="normal"><tspan x="97.5" dy="0.0">Local client B</tspan></text><rect x="24.0" y="160.0" width="147.0" height="34.0" fill="#eef3fb" stroke="#3b5b92" stroke-width="1.5"/><text x="97.5" y="177.0" font-family="Helvetica, Arial, sans-serif" font-size="13" fill="#15233f" text-anchor="middle" dominant-baseline="middle" font-weight="normal"><tspan x="97.5" dy="0.0">Local automation</tspan></text><rect x="231.0" y="24.0" width="161.0" height="34.0" fill="#eef3fb" stroke="#3b5b92" stroke-width="1.5"/><text x="311.5" y="41.0" font-family="Helvetica, Arial, sans-serif" font-size="13" fill="#15233f" text-anchor="middle" dominant-baseline="middle" font-weight="normal"><tspan x="311.5" dy="0.0">Local IPC endpoint</tspan></text><rect x="452.0" y="24.0" width="70.0" height="34.0" fill="#eef3fb" stroke="#3b5b92" stroke-width="1.5"/><text x="487.0" y="41.0" font-family="Helvetica, Arial, sans-serif" font-size="13" fill="#15233f" text-anchor="middle" dominant-baseline="middle" font-weight="normal"><tspan x="487.0" dy="0.0">SBsrv</tspan></text><rect x="582.0" y="24.0" width="75.0" height="34.0" fill="#eef3fb" stroke="#3b5b92" stroke-width="1.5"/><text x="619.5" y="41.0" font-family="Helvetica, Arial, sans-serif" font-size="13" fill="#15233f" text-anchor="middle" dominant-baseline="middle" font-weight="normal"><tspan x="619.5" dy="0.0">SBcore</tspan></text><rect x="745.5" y="24.0" width="147.0" height="34.0" fill="#eef3fb" stroke="#3b5b92" stroke-width="1.5"/><text x="819.0" y="41.0" font-family="Helvetica, Arial, sans-serif" font-size="13" fill="#15233f" text-anchor="middle" dominant-baseline="middle" font-weight="normal"><tspan x="819.0" dy="0.0">(Database files)</tspan></text><rect x="717.0" y="92.0" width="204.0" height="34.0" fill="#eef3fb" stroke="#3b5b92" stroke-width="1.5"/><text x="819.0" y="109.0" font-family="Helvetica, Arial, sans-serif" font-size="13" fill="#15233f" text-anchor="middle" dominant-baseline="middle" font-weight="normal"><tspan x="819.0" dy="0.0">Logs and message vectors</tspan></text></svg>
