<svg xmlns="http://www.w3.org/2000/svg" width="737" height="592" viewBox="0 0 737 592" font-family="Helvetica, Arial, sans-serif">
<defs><marker id="arrow" viewBox="0 0 10 10" refX="9" refY="5" markerWidth="8" markerHeight="8" orient="auto-start-end"><path d="M0,0 L10,5 L0,10 z" fill="#555555" stroke="#555555"/></marker></defs>
<rect x="0" y="0" width="737" height="592" fill="#ffffff"/>
<line x1="83.2" y1="58.0" x2="83.2" y2="568.0" stroke="#aaaaaa" stroke-width="1" stroke-dasharray="4,4"/><line x1="241.6" y1="58.0" x2="241.6" y2="568.0" stroke="#aaaaaa" stroke-width="1" stroke-dasharray="4,4"/><line x1="380.8" y1="58.0" x2="380.8" y2="568.0" stroke="#aaaaaa" stroke-width="1" stroke-dasharray="4,4"/><line x1="500.8" y1="58.0" x2="500.8" y2="568.0" stroke="#aaaaaa" stroke-width="1" stroke-dasharray="4,4"/><line x1="647.2" y1="58.0" x2="647.2" y2="568.0" stroke="#aaaaaa" stroke-width="1" stroke-dasharray="4,4"/><rect x="24.0" y="24.0" width="118.4" height="34" rx="6" fill="#eef3fb" stroke="#3b5b92" stroke-width="1.5"/><text x="83.2" y="41.0" font-family="Helvetica, Arial, sans-serif" font-size="13" fill="#15233f" text-anchor="middle" dominant-baseline="middle" font-weight="normal"><tspan x="83.2" dy="0.0">Local client</tspan></text><rect x="182.4" y="24.0" width="118.4" height="34" rx="6" fill="#eef3fb" stroke="#3b5b92" stroke-width="1.5"/><text x="241.6" y="41.0" font-family="Helvetica, Arial, sans-serif" font-size="13" fill="#15233f" text-anchor="middle" dominant-baseline="middle" font-weight="normal"><tspan x="241.6" dy="0.0">IPC endpoint</tspan></text><rect x="340.8" y="24.0" width="80.0" height="34" rx="6" fill="#eef3fb" stroke="#3b5b92" stroke-width="1.5"/><text x="380.8" y="41.0" font-family="Helvetica, Arial, sans-serif" font-size="13" fill="#15233f" text-anchor="middle" dominant-baseline="middle" font-weight="normal"><tspan x="380.8" dy="0.0">SBsrv</tspan></text><rect x="460.8" y="24.0" width="80.0" height="34" rx="6" fill="#eef3fb" stroke="#3b5b92" stroke-width="1.5"/><text x="500.8" y="41.0" font-family="Helvetica, Arial, sans-serif" font-size="13" fill="#15233f" text-anchor="middle" dominant-baseline="middle" font-weight="normal"><tspan x="500.8" dy="0.0">SBcore</tspan></text><rect x="580.8" y="24.0" width="132.8" height="34" rx="6" fill="#eef3fb" stroke="#3b5b92" stroke-width="1.5"/><text x="647.2" y="41.0" font-family="Helvetica, Arial, sans-serif" font-size="13" fill="#15233f" text-anchor="middle" dominant-baseline="middle" font-weight="normal"><tspan x="647.2" dy="0.0">Database files</tspan></text><line x1="380.8" y1="88.0" x2="500.8" y2="88.0" stroke="#555555" stroke-width="1.3" marker-end="url(#arrow)"/><text x="440.8" y="82.0" font-family="Helvetica, Arial, sans-serif" font-size="11" fill="#333333" text-anchor="middle">initialize engine with configuration</text><line x1="500.8" y1="126.0" x2="647.2" y2="126.0" stroke="#555555" stroke-width="1.3" marker-end="url(#arrow)"/><text x="574.0" y="120.0" font-family="Helvetica, Arial, sans-serif" font-size="11" fill="#333333" text-anchor="middle">create or open database</text><line x1="83.2" y1="164.0" x2="241.6" y2="164.0" stroke="#555555" stroke-width="1.3" marker-end="url(#arrow)"/><text x="162.4" y="158.0" font-family="Helvetica, Arial, sans-serif" font-size="11" fill="#333333" text-anchor="middle">attach</text><line x1="241.6" y1="202.0" x2="380.8" y2="202.0" stroke="#555555" stroke-width="1.3" marker-end="url(#arrow)"/><text x="311.2" y="196.0" font-family="Helvetica, Arial, sans-serif" font-size="11" fill="#333333" text-anchor="middle">local attach request</text><line x1="380.8" y1="240.0" x2="500.8" y2="240.0" stroke="#555555" stroke-width="1.3" marker-end="url(#arrow)"/><text x="440.8" y="234.0" font-family="Helvetica, Arial, sans-serif" font-size="11" fill="#333333" text-anchor="middle">authenticate and open session</text><line x1="500.8" y1="278.0" x2="380.8" y2="278.0" stroke="#555555" stroke-width="1.3" stroke-dasharray="5,4" marker-end="url(#arrow)"/><text x="440.8" y="272.0" font-family="Helvetica, Arial, sans-serif" font-size="11" fill="#333333" text-anchor="middle">session admitted or refused</text><line x1="380.8" y1="316.0" x2="83.2" y2="316.0" stroke="#555555" stroke-width="1.3" stroke-dasharray="5,4" marker-end="url(#arrow)"/><text x="232.0" y="310.0" font-family="Helvetica, Arial, sans-serif" font-size="11" fill="#333333" text-anchor="middle">attach result</text><line x1="83.2" y1="354.0" x2="380.8" y2="354.0" stroke="#555555" stroke-width="1.3" marker-end="url(#arrow)"/><text x="232.0" y="348.0" font-family="Helvetica, Arial, sans-serif" font-size="11" fill="#333333" text-anchor="middle">database request</text><line x1="380.8" y1="392.0" x2="500.8" y2="392.0" stroke="#555555" stroke-width="1.3" marker-end="url(#arrow)"/><text x="440.8" y="386.0" font-family="Helvetica, Arial, sans-serif" font-size="11" fill="#333333" text-anchor="middle">execute admitted work</text><line x1="500.8" y1="430.0" x2="380.8" y2="430.0" stroke="#555555" stroke-width="1.3" stroke-dasharray="5,4" marker-end="url(#arrow)"/><text x="440.8" y="424.0" font-family="Helvetica, Arial, sans-serif" font-size="11" fill="#333333" text-anchor="middle">result or message vector</text><line x1="380.8" y1="468.0" x2="83.2" y2="468.0" stroke="#555555" stroke-width="1.3" stroke-dasharray="5,4" marker-end="url(#arrow)"/><text x="232.0" y="462.0" font-family="Helvetica, Arial, sans-serif" font-size="11" fill="#333333" text-anchor="middle">response</text><line x1="83.2" y1="506.0" x2="380.8" y2="506.0" stroke="#555555" stroke-width="1.3" marker-end="url(#arrow)"/><text x="232.0" y="500.0" font-family="Helvetica, Arial, sans-serif" font-size="11" fill="#333333" text-anchor="middle">detach</text><line x1="380.8" y1="544.0" x2="500.8" y2="544.0" stroke="#555555" stroke-width="1.3" marker-end="url(#arrow)"/><text x="440.8" y="538.0" font-family="Helvetica, Arial, sans-serif" font-size="11" fill="#333333" text-anchor="middle">close session</text></svg>
